<?xml version="1.0" encoding="UTF-8"?> <svg xmlns="http://www.w3.org/2000/svg" xmlns:xlink="http://www.w3.org/1999/xlink" width="690.296" height="812.657" viewBox="0 0 690.296 812.657"><defs><style>.a{fill:url(#a);}.b{fill:#dce7f5;}.c{fill:#e9f3fc;}.d{fill:#deecfa;}.e{fill:#f6fafe;}.f{fill:#d6e6f7;}.g{fill:#eef3fb;}.h{fill:#e1ecf9;}.i{fill:#d7e5f6;}.j{fill:#cddff4;}.k{fill:#c3d7f0;}.l{fill:#0dbefc;}.m{fill:#c4d7f0;}.n{fill:#b8d0ee;}.o{fill:#f2f7fb;}.p{fill:#fff;}.q{fill:#2b337c;}.r{fill:#eff5fc;}.s{fill:#789cd2;}.t{fill:#9fb7e0;}.u{fill:#7492cb;}.v{fill:#92aedb;}.w{fill:#aabfe4;}.x{fill:#6173b6;}.y{fill:#809cd1;}.z{fill:#a4bae2;}.aa{fill:#7e9dd2;}.ab{fill:#0eb3e0;}.ac{fill:#366bc1;}.ad{fill:#f9c8b9;}.ae{fill:#adceee;}.af{fill:#474069;}.ag{fill:#e5f2fc;}.ah{fill:#e5edf9;}.ai{fill:#d3daf0;}.aj{fill:#363659;}.ak{fill:#f19e85;}.al{clip-path:url(#c);}.am{fill:#508ac8;}.an{fill:#70a8db;}</style><linearGradient id="a" x1="0.5" y1="1" x2="0.5" gradientUnits="objectBoundingBox"><stop offset="0.003" stop-color="#0e97e0"></stop><stop offset="1" stop-color="#0dbefc"></stop></linearGradient><clipPath id="c"><path class="a" d="M1471.636,1034.184s-5.5-6.883-15.65-1.4c-7.756,4.194-3.678,3.847-12.984,6.876-5.487,1.786-14.007-7.633-27.544-1.276-24.51,11.509-33.054-10.613-43.7,1.839v57.188l99.881-54.633v-8.6Z" transform="translate(-1371.755 -1030.664)"></path></clipPath></defs><path class="b" d="M1503.586,1430.883l64.972-37.512-64.973,37.512h0m-1.405-.811h0L1467,1409.759h0l35.186,20.313m75.335-41.873h0l-48.277-27.874q-.264.658-.541,1.31l46.009,26.563,1.052-.609.353-.2,1.4.81" transform="translate(-1034.159 -831.924)"></path><path class="b" d="M1587.58,1478.467l72.525-41.873h0l-72.525,41.873m-2.815,0,1.057-.608.109-.064.246-.139-35.1-20.26-1.4.812,35.088,20.258m73.935-42.683h0l-35.185-20.311h0l35.185,20.312" transform="translate(-1192.083 -836.824)"></path><path class="c" d="M1584.862,1435.7l1.053-.608.225-.129.127-.073-35.187-20.313-1.4.812,35.184,20.311" transform="translate(-1118.245 -836.745)"></path><path class="b" d="M1461.234,1476.019l72.526-41.873h0l-72.526,41.873m-24.444-12.492-50.43-29.115h0l50.43,29.115m98.375-30.192h0l-73.47-42.418-8.957,5.172,7.553-4.361,72.065,41.607,1.053-.609.351-.2,1.4.811m-148.8-.545,72.526-41.873-72.526,41.873h0" transform="translate(-918.338 -834.642)"></path><path class="b" d="M1468.4,1433.522l64.974-37.513,8.957-5.172-1.4-.81-.352.2-1.054.608h0L1467,1432.711h0l1.4.811" transform="translate(-998.973 -834.563)"></path><path class="c" d="M1549.677,1438.654h0" transform="translate(-1081.655 -838.884)"></path><path class="d" d="M1549.677,1436.947l.127-.073h0l-.127.073" transform="translate(-1081.782 -838.726)"></path><path class="e" d="M1476.441,1485.531h0l-7.4-4.273,7.4,4.273m1.485-.765h0l-7.48-4.318h0l7.48,4.318m137.108-4.584h0L1593.4,1467.69l21.635,12.492m-145.993-.545,72.523-41.873-72.523,41.873h0m147.4-.266h0l-72.064-41.607h0l72.065,41.607" transform="translate(-1074.948 -838.805)"></path><path class="c" d="M1548.135,1437.764h0" transform="translate(-1078.709 -838.805)"></path><path class="c" d="M1551.327,1480.448h0l72.525-41.873-1.405-.811h0l-72.523,41.873-.246.138.246-.138,1.4.811" transform="translate(-1155.829 -838.805)"></path><path class="d" d="M1549.816,1437.692l1.278-.738-.225.129-1.053.608h0" transform="translate(-1083.199 -838.733)"></path><path class="b" d="M1541.108,1480.181l1.053-.608.092-.053.259-.15-72.065-41.607-1.053.609-.27.155-.081.047,50.43,29.115,21.635,12.491" transform="translate(-1001.021 -838.805)"></path><path class="d" d="M1548.218,1438.448l.27-.155,1.053-.608h0l-1.4-.811h0l1.4.811-1.323.763" transform="translate(-1080.115 -838.726)"></path><path class="d" d="M1550.994,1438.575h0l.081-.047-.081.047-1.4-.811h0l1.405.811" transform="translate(-1082.972 -838.805)"></path><path class="f" d="M1549.542,1438.5l.081-.047,1.323-.763-1.4-.811-.127.073-1.278.738,1.405.811" transform="translate(-1081.519 -838.726)"></path><path class="e" d="M1469.043,1506.4l36.7-21.192h0l-36.7,21.191h0" transform="translate(-964.257 -843.021)"></path><path class="b" d="M1632.41,1527.294l72.527-41.873-1.412-.81h0l-72.709,41.981.182-.107,1.412.811" transform="translate(-1310.843 -842.968)"></path><path class="c" d="M1631.085,1484.545l1.166-.672-.109.064-1.057.608h0" transform="translate(-1238.404 -842.902)"></path><path class="e" d="M1670.252,1573.954l31.352-18.1h0l-31.352,18.1m-38.842-20.8-36.035-20.8,36.035,20.8" transform="translate(-1275.219 -847.21)"></path><path class="c" d="M1629.876,1489.694c.492-.26.984-.516,1.485-.765l-7.48-4.318-1.057.608-.346.2-1.412-.811h0l1.412.811h0l7.4,4.273" transform="translate(-1228.383 -842.968)"></path><path class="d" d="M1630.688,1485.342l.346-.2,1.057-.608-1.4-.811-.246.138-1.166.672,1.412.81" transform="translate(-1236.594 -842.889)"></path><path class="b" d="M1706.2,1617.3h0l-1.4-.811,32.372-18.693-30.97,17.882-72.061-41.607,72.517-41.873-1.4-.811,1.222-.7-.164.095-74.987,43.293L1706.2,1617.3m1.4-.811,72.527-41.873h0l-72.527,41.873m71.124-42.684h0l-36.036-20.8,36.036,20.8m1.4-.811h0l-72.062-41.607h0L1780.132,1573" transform="translate(-1386.502 -847.062)"></path><path class="b" d="M1704.8,1573.795l1.048-.608.109-.063.246-.139-72.062-41.607-1.412-.811-.182.107-1.221.7,1.4.811h0l36.036,20.8,36.035,20.8" transform="translate(-1312.574 -847.052)"></path><path class="b" d="M1379.377,1523.278l.169-.1,74.985-43.292-73.47-42.417-1.4.811,72.065,41.606-72.527,41.873-72.065-41.606h0l73.47,42.416-1.223.706m-73.652-43.933,72.527-41.873-72.527,41.873h0" transform="translate(-764.234 -838.779)"></path><path class="b" d="M1387.765,1480.077h0l72.526-41.873,1.4-.811-1.4-.811-.351.2-1.053.608h0l-72.527,41.873,1.4.811h0" transform="translate(-844.87 -838.7)"></path><path class="c" d="M1469.043,1483.429h0" transform="translate(-927.553 -842.863)"></path><path class="d" d="M1469.165,1484.24h0l-1.4-.811h0l-.259.149.259-.149,1.4.811" transform="translate(-926.271 -842.863)"></path><path class="e" d="M1467,1497.276l-20.9-12.068h0l20.9,12.068" transform="translate(-904.612 -843.021)"></path><path class="c" d="M1469.043,1485.208h0" transform="translate(-927.553 -843.021)"></path><path class="b" d="M1440.571,1568.8l71.631-41.358-.182.1-52.567-30.349,51.162,29.538-72.526,41.874.21.12.725-.419.352-.2,1.2.69M1414,1554.7l-25.792-14.892h0L1414,1554.7m-12.773-49.645,35.92-20.738-35.92,20.738h0" transform="translate(-897.059 -842.942)"></path><path class="c" d="M1469.662,1506.32l36.7-21.191-1.4-.81h0l-35.92,20.738q.331.63.62,1.264" transform="translate(-964.876 -842.942)"></path><path class="d" d="M1469.328,1484.254l1.145-.661-.092.053-1.053.608h0" transform="translate(-929.241 -842.878)"></path><path class="b" d="M1460.336,1527.546l.182-.1,1.223-.706-73.47-42.416-1.052.609-.31.177-.042.024,20.9,12.068,52.567,30.349" transform="translate(-845.376 -842.942)"></path><path class="d" d="M1467.5,1485.1l.31-.177,1.052-.609h0l-1.362.786" transform="translate(-925.97 -842.942)"></path><path class="d" d="M1470.4,1485.129h0l.042-.024-.042.024-1.4-.811h0l1.4.81" transform="translate(-928.911 -842.942)"></path><path class="f" d="M1468.907,1485.05l.042-.024,1.362-.786-1.4-.811-.259.149-1.145.662,1.4.81" transform="translate(-927.416 -842.863)"></path><path class="e" d="M1544.517,1618.3l.165-.1.727-.419h0l-.89.515m-1.592-.7h0l-72.064-41.608h0l72.064,41.607m1.615-.69,72.526-41.874-50.011-28.873h0l49.8,28.753-72.528,41.873.211.121m-36.241-20.925-36.036-20.8h0l36.036,20.8m-37.439-21.615,30.569-17.647h0l-30.569,17.647h0" transform="translate(-1077.231 -848.438)"></path><path class="b" d="M1596.778,1576.213h0l31.352-18.1q-1.093-.166-2.187-.355l-30.569,17.647,1.4.811h0" transform="translate(-1201.745 -849.468)"></path><path class="c" d="M1631.325,1578.744h0m0-1.622h0" transform="translate(-1237.695 -851.189)"></path><path class="d" d="M1631.435,1577.933h0l-1.4-.811h0l-.246.139.246-.139,1.4.811" transform="translate(-1236.402 -851.189)"></path><path class="b" d="M1519.33,1574.953l1.405-.811-.21-.12h0l-24.09-13.907-25.792-14.891q-.648.432-1.325.856l50.01,28.873" transform="translate(-979.495 -848.354)"></path><path class="b" d="M1623.952,1663.925l.354-.2,73.766-42.588-.187.107-1.4-.81-72.528,41.874L1551.89,1620.7l-1.057.609-.347.2,73.466,42.418m73.933-44.306h0l-36.03-20.8,36.03,20.8M1581.455,1602l41.558-23.991L1581.455,1602" transform="translate(-1230.787 -851.268)"></path><path class="b" d="M1632.729,1621.507l.346-.2,1.057-.609h0l72.526-41.874-1.4-.81h0L1663.7,1602l-32.373,18.693,1.4.811" transform="translate(-1313.029 -851.268)"></path><path class="d" d="M1631.6,1577.947l1.157-.672-.109.063-1.048.608h0" transform="translate(-1239.369 -851.202)"></path><path class="b" d="M1622.977,1621.24l.187-.107.891-.515-1.194-.69.327-.189-.21-.121h0l-36.03-20.8-36.035-20.8-1.048.608-.319.179-.036.023,72.065,41.607,1.4.81" transform="translate(-1155.879 -851.268)"></path><path class="d" d="M1629.785,1578.8l.319-.179,1.048-.608h0l-1.367.788" transform="translate(-1236.12 -851.268)"></path><path class="d" d="M1632.689,1578.822h0l.036-.022-.036.022-1.4-.81h0l1.4.811" transform="translate(-1239.059 -851.268)"></path><path class="f" d="M1631.189,1578.743l.036-.022,1.367-.788-1.4-.811-.246.139-1.157.672,1.4.81" transform="translate(-1237.559 -851.189)"></path><path class="b" d="M1459.638,1663.071l.351-.2,74.985-43.293-73.679-42.538-2.13,1.23-.111.064-73.093,42.2,73.678,42.538m.461-85.1,72.065,41.607-72.526,41.873-72.067-41.607,72.528-41.873" transform="translate(-917.783 -851.181)"></path><path class="c" d="M1466.856,1578.264l.111-.064,2.13-1.23-1.2-.69-.352.2-.725.419,1.2.691-1.164.672" transform="translate(-925.586 -851.114)"></path><path class="b" d="M1470.154,1620.6l73.094-42.2-.241.139-1.2-.691-72.526,41.874,1.194.69-.327.189h0" transform="translate(-1001.977 -851.254)"></path><path class="d" d="M1469.2,1578.464l.241-.139,1.164-.672-1.2-.691-1.405.811,1.2.691" transform="translate(-928.173 -851.175)"></path><path class="d" d="M1550.344,1624.688l.327-.189-1.194-.69-.327.189,1.194.69" transform="translate(-1082.168 -855.338)"></path><path class="g" d="M1569.961,1552.332c16.8,0,33.65-3.836,46.386-11.473q.521-.313,1.026-.63l-22.264-12.854-41.175,23.771a107.721,107.721,0,0,0,16.027,1.186m-18.214-1.542,41.957-24.226-36.035-20.8-28.628-16.531c-.958.507-1.887,1.036-2.8,1.583-24.409,14.638-27.024,36.938.829,51.82a82.576,82.576,0,0,0,24.674,8.157m66.951-11.418c14.293-9.53,18.813-22.151,13.638-33.489l-35.821,20.682,22.183,12.807m-23.588-13.619,36.606-21.135c-2.964-5.646-8.376-10.927-16.227-15.287-11.973-6.651-27.434-9.947-42.978-9.947-14.934,0-29.94,3.044-41.985,9.08l13.822,7.982,50.761,29.307" transform="translate(-1127.549 -842.504)"></path><path class="h" d="M1619.9,1506.646l-28.628-16.531h0l28.628,16.531m-13.321-9.315-13.822-7.982h0l13.822,7.982" transform="translate(-1189.782 -843.389)"></path><path class="h" d="M1509.328,1529.149l35.82-20.682h0l-35.821,20.682" transform="translate(-1040.363 -845.088)"></path><path class="h" d="M1559.768,1552.809l41.175-23.771h0l-41.175,23.771h0m39.77-24.582h0l-36.035-20.8,36.035,20.8m1.405-.81h0l-50.761-29.307,50.76,29.308" transform="translate(-1133.383 -844.168)"></path><path class="i" d="M1614.847,1527.449l1.053-.609.316-.181.036-.02-50.76-29.308-13.822-7.982c-.5.25-.993.5-1.485.765l28.628,16.531,36.035,20.8" transform="translate(-1148.691 -843.389)"></path><path class="h" d="M1533.6,1541.834h0l-22.183-12.808h0l22.183,12.808m-23.588-13.619,36.607-21.136h0l-36.606,21.135h0" transform="translate(-1042.446 -844.965)"></path><path class="i" d="M1510.732,1529.026h0l35.821-20.682q-.289-.634-.62-1.264l-36.607,21.136,1.4.81h0" transform="translate(-1041.766 -844.965)"></path><path class="i" d="M1550.183,1530.276h0" transform="translate(-1082.623 -847.026)"></path><path class="j" d="M1550.083,1531.086h0l-1.4-.811h0l-.035.02.035-.02,1.4.811" transform="translate(-1081.118 -847.026)"></path><path class="h" d="M1525.749,1555.391l41.957-24.226-41.957,24.226h0m65.626-10.561h0l-22.263-12.854h0l22.264,12.854" transform="translate(-1101.551 -847.105)"></path><path class="i" d="M1552.37,1555.747l41.175-23.771h0l-1.405-.811h0l-41.957,24.226q1.094.19,2.187.355" transform="translate(-1125.984 -847.105)"></path><path class="j" d="M1551.589,1531.9h0l-1.4-.811,1.369-.79-.316.181-1.053.609,1.405.811" transform="translate(-1084.029 -847.028)"></path><path class="i" d="M1546.558,1544.83q.675-.424,1.325-.856l-22.183-12.808-1.053.608-.229.131-.122.071,22.263,12.854" transform="translate(-1056.734 -847.105)"></path><path class="j" d="M1548.642,1531.9l.229-.131,1.053-.608h0l-1.281.739" transform="translate(-1080.959 -847.105)"></path><path class="j" d="M1550.05,1532.048l.122-.071-.123.071h0" transform="translate(-1082.489 -847.177)"></path><g transform="translate(466.156 683.25)"><path class="k" d="M1550.047,1531.9l.123-.071,1.282-.74-1.4-.81-.036.02-1.369.79,1.4.811" transform="translate(-1548.642 -1530.276)"></path></g><path class="b" d="M1572.415,1199.049c0,168.435,110.12,265.042,231.4,235.637,131.094-31.784,215.9-263.562,215.9-432s-100.134-261.021-223.657-206.8-223.648,234.725-223.648,403.159" transform="translate(-1572.415 -780.389)"></path><path class="l" d="M1942.477,1285.792s14.551-71.448-24.51-97.078-6.377-94.324-67.833-115.006-61.666-44.258-61.666-44.258-10.8,89.354,26.677,120.693,57.83,101.805,74.842,116.634,41.375,51.928,41.375,51.928l11.115-32.913" transform="translate(-1693.363 -802.522)"></path><path class="b" d="M1943.091,1257.448a1.59,1.59,0,0,0-.074-.167c-1.458-3.484-25.994-61.035-61.947-109.791-10.66-14.454-26.479-35.189-40.009-55.026-6.77-9.921-12.965-19.618-17.666-28.231a119.538,119.538,0,0,1-5.822-12.021,41.456,41.456,0,0,1-2.888-9.917,1.837,1.837,0,1,1,3.644-.477,38.36,38.36,0,0,0,2.652,9.01,156.747,156.747,0,0,0,11.426,21.587c7.379,12.068,16.783,25.546,26.095,38.373s18.514,25.007,25.53,34.519c37.447,50.8,62.422,110.653,62.449,110.723a1.837,1.837,0,1,1-3.39,1.417Z" transform="translate(-1720.045 -803.478)"></path><path class="l" d="M1998.725,1343.5s-61.421-107.578-128.2-126.143-92.162,17.909-92.162,17.909,29.44-3.291,57.694,19.615,52.646,33.139,69.347,38.672,49.22,51.4,49.22,51.4l44.1-1.449Z" transform="translate(-1739.069 -818.751)"></path><path class="b" d="M1990.49,1294.644s-.055-.047-.156-.143c-1.631-1.482-15.771-14.254-32.472-26.9a258.332,258.332,0,0,0-25.712-17.439,99.138,99.138,0,0,0-11.872-5.953,35.952,35.952,0,0,0-9.786-2.7c-10.077-.946-20.273-3.47-30.077-5.73-9.786-2.265-19.17-4.259-27.489-4.253a36.23,36.23,0,0,0-12.3,1.906,1.84,1.84,0,0,1-1.248-3.461,39.943,39.943,0,0,1,13.549-2.122c8.892.006,18.486,2.081,28.317,4.348s19.891,4.745,29.585,5.652a40.029,40.029,0,0,1,11.208,3.11c7.06,2.926,14.97,7.566,22.924,12.886,23.826,15.954,47.971,38.059,48.008,38.089a1.837,1.837,0,1,1-2.478,2.713Z" transform="translate(-1788.4 -820.151)"></path><path class="m" d="M1663.684,1492.336l-101.838-61.165a13.591,13.591,0,0,1,.2-23.237l301.979-179.543,39.688,125.539-240.029,138.406" transform="translate(-1440.911 -820.2)"></path><path class="n" d="M1576.721,1462.012l212.256-140.76c13.273-7.665,24.036-28.226,24.036-45.925V812.065c0-17.7-10.761-25.835-24.037-18.171l-221.6,127.946c-13.276,7.664-24.036,28.226-24.036,45.925v461.072c0,11.646,4.355,16.5,11.68,20.732l21.7,12.443" transform="translate(-1339.215 -781.333)"></path><path class="o" d="M1671.449,1026.775s113.624,265.751,113.624,248.051l18.667-468.453-27.855-14.709c-4.087-1.926-9.243-1.506-14.846,1.729l-221.6,127.946c-6.487,3.742-12.364,10.559-16.692,18.617l148.707,86.82" transform="translate(-1311.176 -781.289)"></path><path class="p" d="M1543.549,1461.611l221.06-127.946c13.275-7.664,23.492-28.225,23.492-45.925V824.478c0-17.7-10.481-25.835-23.755-18.171L1543.4,934.252c-13.275,7.664-23.371,28.225-23.371,45.925V1443.44c0,17.7,10.241,25.834,23.516,18.171" transform="translate(-1293.069 -782.436)"></path><path class="q" d="M1538.675,1463.413l221.065-127.946c13.275-7.664,23.491-28.225,23.491-45.925V826.28c0-17.7-10.479-25.835-23.754-18.171L1538.539,936.054c-13.275,7.664-23.371,28.225-23.371,45.925v463.262c0,17.7,10.232,25.836,23.507,18.172" transform="translate(-1283.766 -782.596)"></path><path class="l" d="M1547.181,1389.1l215.539-124.441a7.248,7.248,0,0,0,3.622-6.275V867.166a7.245,7.245,0,0,0-10.867-6.275L1539.937,985.334a7.249,7.249,0,0,0-3.627,6.274v391.222a7.247,7.247,0,0,0,10.871,6.274" transform="translate(-1286.14 -787.456)"></path><path class="l" d="M1628.18,930.624l68.354-39.467c2.4-1.385,4.364-5.134,4.364-8.331s-1.96-4.681-4.364-3.3L1628.18,919c-2.4,1.385-4.355,5.134-4.355,8.332s1.959,4.681,4.355,3.3Z" transform="translate(-1300.435 -789.153)"></path><path class="r" d="M1825.252,1064.706c3.626,1.544,6.6-.394,6.6-4.306v-26.378a11.737,11.737,0,0,0-6.6-9.921c-3.627-1.543-6.6.394-6.6,4.307v26.378a11.734,11.734,0,0,0,6.6,9.921" transform="translate(-1608.902 -801.999)"></path><path class="s" d="M1828.362,1065.094c3.625,1.544,6.588-.394,6.588-4.306V1034.41a11.727,11.727,0,0,0-6.588-9.92c-3.635-1.544-6.6.394-6.6,4.306v26.378a11.719,11.719,0,0,0,6.6,9.92" transform="translate(-1614.837 -802.033)"></path><path class="r" d="M1825.252,1117.4c3.626,1.544,6.6-.394,6.6-4.306v-26.378a11.734,11.734,0,0,0-6.6-9.92c-3.627-1.544-6.6.394-6.6,4.305v26.378a11.733,11.733,0,0,0,6.6,9.921" transform="translate(-1608.902 -806.682)"></path><path class="s" d="M1828.362,1117.791c3.625,1.544,6.588-.394,6.588-4.305v-26.379a11.728,11.728,0,0,0-6.588-9.92c-3.635-1.544-6.6.394-6.6,4.306v26.378a11.717,11.717,0,0,0,6.6,9.92" transform="translate(-1614.837 -806.716)"></path><path class="t" d="M1851.488,1112.769l3.681-3.914,5.722-3.125v-64.792l-17.24,9.419c-2.386,1.3-4.336,5.085-4.336,8.4v32.111c5.8,6.459,9.531,13.943,12.173,21.9" transform="translate(-1656.769 -803.542)"></path><path class="u" d="M1849.635,1134.481l15.854-16.842c-2.642-7.954-6.369-15.438-12.173-21.9V1114.4l-3.681,20.085" transform="translate(-1670.77 -808.412)"></path><path class="v" d="M1814.245,1104.512l2.806-1.534V1077.1c0-3,1.74-4.837,4.191-4.837a5.29,5.29,0,0,1,.919.084,4.173,4.173,0,0,1,1.905-.437,6.162,6.162,0,0,1,2.405.532,11.734,11.734,0,0,1,6.6,9.92v11.861l4.018-2.2v-64.792l-5.094,2.783a10.049,10.049,0,0,1,1.076,4.331v26.378c0,3-1.74,4.837-4.191,4.837a5.221,5.221,0,0,1-.921-.083,4.212,4.212,0,0,1-1.912.437,6.154,6.154,0,0,1-2.4-.531,11.719,11.719,0,0,1-6.6-9.92v-17.279l-2.806,1.534v64.792" transform="translate(-1610.123 -802.325)"></path><path class="w" d="M1809.376,1091.789l4.437-2.423v-64.792l-4.437,2.423v64.792" transform="translate(-1582.412 -802.088)"></path><path class="x" d="M1788.776,1088.366l18.769-10.258v-64.792l-18.769,10.258v64.792" transform="translate(-1557.374 -801.088)"></path><path class="y" d="M1773.305,1077.544l9.759-5.33c2.386-1.3,4.337-5.086,4.337-8.4v-52.725c0-2.547-1.148-4.11-2.761-4.11a3.307,3.307,0,0,0-1.575.446l-9.759,5.331v64.792" transform="translate(-1523.135 -800.524)"></path><path class="z" d="M1819.576,1065.834c2.451,0,4.191-1.839,4.191-4.837v-26.378a10.049,10.049,0,0,0-1.076-4.331l-2.414,1.32a9.633,9.633,0,0,1,.656,3.364v26.378a4.643,4.643,0,0,1-2.279,4.4,5.219,5.219,0,0,0,.921.083" transform="translate(-1600.821 -802.596)"></path><path class="aa" d="M1830.758,1066.317a4.212,4.212,0,0,0,1.912-.437,4.643,4.643,0,0,0,2.279-4.4V1035.1a9.636,9.636,0,0,0-.656-3.364l-12.528,6.849v17.279a11.719,11.719,0,0,0,6.6,9.92,6.153,6.153,0,0,0,2.4.531" transform="translate(-1614.837 -802.725)"></path><path class="z" d="M1826.729,1100.127l2.834-1.547v-11.861a11.734,11.734,0,0,0-6.6-9.92,6.162,6.162,0,0,0-2.405-.532,4.173,4.173,0,0,0-1.905.437,6.922,6.922,0,0,1,1.486.447,11.728,11.728,0,0,1,6.588,9.92v13.055" transform="translate(-1606.616 -806.682)"></path><path class="aa" d="M1821.765,1107.37l13.184-7.208v-13.055a11.728,11.728,0,0,0-6.588-9.92,6.916,6.916,0,0,0-1.486-.448,5.29,5.29,0,0,0-.919-.084c-2.451,0-4.191,1.839-4.191,4.837v25.877" transform="translate(-1614.837 -806.716)"></path><path class="p" d="M1718.464,986.848l76.226-44.012c2.487-1.437,4.528.1,4.528,3.421v50.765l6.332,26.208-22.879-8.662-64.208,37.071c-2.5,1.437-4.528-.1-4.528-3.421V995.494c0-3.318,2.032-7.209,4.528-8.646Z" transform="translate(-1487.189 -794.777)"></path><path class="y" d="M1741.6,999.907c0,3.791,2.67,5.318,5.977,3.41A13.175,13.175,0,0,0,1753.558,993c0-3.79-2.679-5.317-5.986-3.41a13.168,13.168,0,0,0-5.977,10.319Z" transform="translate(-1460.4 -798.906)"></path><path class="y" d="M1761.825,1011.782c0,3.791,2.679,5.318,5.986,3.41a13.189,13.189,0,0,0,5.977-10.319c0-3.791-2.679-5.317-5.977-3.41a13.177,13.177,0,0,0-5.986,10.319Z" transform="translate(-1499.062 -799.962)"></path><path class="y" d="M1782.045,1023.657c0,3.791,2.67,5.317,5.977,3.41a13.177,13.177,0,0,0,5.986-10.319c0-3.791-2.679-5.317-5.986-3.41a13.168,13.168,0,0,0-5.977,10.319Z" transform="translate(-1537.705 -801.017)"></path><path class="b" d="M1336.4,1252.322,1473.45,1173.2c3.944-2.277,7.172-8.443,7.172-13.7v-84.853c0-5.259-3.228-7.7-7.172-5.421L1336.4,1148.343c-3.945,2.277-7.172,8.444-7.172,13.7V1246.9c0,5.259,3.227,7.7,7.172,5.422Z" transform="translate(-811.743 -805.98)"></path><path class="p" d="M1336.913,1156.556c0,17.195,12.148,23.726,27.133,14.587s27.134-30.486,27.134-47.682-12.148-23.726-27.134-14.587-27.133,30.487-27.133,47.682Z" transform="translate(-729.3 -809.212)"></path><path class="l" d="M1359.3,1137.262c.011.11.023.209.032.287-.009-.088-.021-.185-.032-.287Zm-3.531,26.27a3.019,3.019,0,0,1-4.587-3.263,24.07,24.07,0,0,1,2.212-6.16,15.245,15.245,0,0,1,2.142-2.445c.721-.708,1.662-1.709,2.572-2.677.3-.323.611-.65.913-.968h0l1.84-2.036.826-1.087.191-.252c.018-.134.006-.277.012-.4q.055-1.268.109-2.536a2.94,2.94,0,0,1-1.336-2.44c-1.234.794-1.5-.8-1.612-1.941-.078-.807-.171-2.846.786-3.652-.022-.126-.042-.248-.065-.354a9.723,9.723,0,0,1-.258-2.133,7.172,7.172,0,0,1,.478-2.533,2.483,2.483,0,0,1,.31-.589,2.939,2.939,0,0,1,.158-.926,13.983,13.983,0,0,1,3.709-6.069,8.9,8.9,0,0,1,4.553-2.3c1.075-.189,2.5-.092,2.516,1.82a2.069,2.069,0,0,1-.134.725c.2-.107.361.019.464.177a3.571,3.571,0,0,1,.384,2,15.887,15.887,0,0,1-.355,2.513c-.028.133-.053.28-.078.431,1.18-.751.932,1.711.794,2.72-.173,1.258-.529,3.152-1.648,3.913a11.3,11.3,0,0,1-.373,1.7,10.524,10.524,0,0,1-1.017,2.28l.007.032q-.057,1.3-.113,2.6c0,.073-.025.215-.02.3l.243.1.507.234,0-.008.481-.094,0-.015.115-.028a7.636,7.636,0,0,1,.967-.167l.038-.007v0c.413-.046.829-.073,1.238-.1.74-.042,1.488-.249,2.209-.261,1.8-.035,4.223,1.517,4.55,5.715a5.457,5.457,0,0,1-2.5,4.982l-21.241,13.18Z" transform="translate(-730.56 -810.453)"></path><path class="p" d="M1408.567,1168.1l38.075-23.219v12.833l-38.075,23.22V1168.1Z" transform="translate(-850.048 -812.779)"></path><path class="p" d="M1466.338,1169.429v12.833l-57.772,35.233v-12.833l57.772-35.232Z" transform="translate(-869.745 -814.96)"></path><path class="p" d="M1329.462,1160.466h.631c0,7.664,1.918,13.641,5.16,17.679a16.439,16.439,0,0,0,13.294,6.188c4.535,0,9.712-1.487,15.227-4.671,9.436-5.445,18.035-14.814,24.254-25.543s10.059-22.811,10.056-33.635c0-7.664-1.918-13.641-5.159-17.678a16.443,16.443,0,0,0-13.3-6.189c-4.534,0-9.71,1.487-15.226,4.671-9.435,5.445-18.035,14.814-24.253,25.544s-10.06,22.81-10.057,33.634h-1.26c0-11.12,3.916-23.378,10.227-34.266s15.026-20.407,24.715-26c5.662-3.268,11.044-4.839,15.855-4.84a17.716,17.716,0,0,1,14.279,6.66c3.47,4.328,5.436,10.6,5.436,18.467,0,11.12-3.916,23.378-10.227,34.266s-15.026,20.407-24.715,26c-5.661,3.269-11.043,4.839-15.856,4.84a17.715,17.715,0,0,1-14.279-6.661c-3.471-4.328-5.436-10.6-5.436-18.467Z" transform="translate(-730.101 -808.378)"></path><path class="p" d="M1548.486,1211.066c0,60.285,42.6,83.181,95.132,51.143s95.122-106.883,95.122-167.168-42.586-83.183-95.122-51.144-95.132,106.884-95.132,167.169Z" transform="translate(-1269.632 -802.518)"></path><path class="o" d="M1522.6,1254.449v-56.408a187.818,187.818,0,0,0-2.45,29.6h0a139.421,139.421,0,0,0,2.45,26.808m230.031-91.533c9.381-25.28,14.717-51.139,14.722-75.447h0v0h0c0-20.693-3.876-38.22-10.948-52.105q-1.755-3.451-3.775-6.6v8.923c6.584,13.078,10.305,29.794,10.3,49.78h0c.005,19.846-3.674,40.9-10.3,61.854v13.593m12.514-75.449h0m-2.209-.036h0" transform="translate(-1272.432 -802.461)"></path><path class="o" d="M1602.97,1312.869h.009c16.865,0,35.735-5.509,55.589-16.968,33.958-19.619,64.508-53,86.644-91.163a292.575,292.575,0,0,0,21.13-44.687v-13.593a282.552,282.552,0,0,1-24.953,56.065c-21.8,37.615-51.951,70.463-85.035,89.552-19.334,11.165-37.475,16.378-53.375,16.376a61.6,61.6,0,0,1-26.268-5.555,56.778,56.778,0,0,1-20.346-16.142c-11.362-14.156-18.086-35.112-18.086-61.979-.009-37.947,13.439-80.31,35.252-117.918s51.953-70.465,85.037-89.554c19.334-11.165,37.484-16.379,53.384-16.376a61.547,61.547,0,0,1,26.257,5.555,56.768,56.768,0,0,1,20.35,16.142,68.909,68.909,0,0,1,7.783,12.2V1025.9a62.594,62.594,0,0,0-26.263-23.421,65.952,65.952,0,0,0-28.119-5.97h-.008c-16.874,0-35.744,5.508-55.6,16.967-33.958,19.618-64.509,53-86.64,91.164-16.637,28.71-28.529,60.134-33.4,90.535v56.408a96.8,96.8,0,0,0,8.493,25.3c7.069,13.881,17.366,24.107,30.039,30.019a66,66,0,0,0,28.128,5.97" transform="translate(-1286.14 -799.594)"></path><path class="ab" d="M1607.072,1111.049c12.373-2.838,20.7,2.594,26.459,8.219,1.786,1.739,5.394-.368,7.134-4.173,5.913-12.866,14.6-29.332,26.486-38.734,10.169-8.034,19.062-9.792,25.167-6.547,44.154,23.472,10.943,15.464,7.344,31.873-6.943,35.6-61.875,116.4-61.875,116.4l-1.348.782s-54.924-17.382-61.867-44.96c-6.514-22.156,7.445-57.112,32.5-62.861Z" transform="translate(-1268.229 -805.972)"></path><path class="l" d="M1601.417,1125.032c12.364-2.837,20.693,2.595,26.45,8.219,1.786,1.739,5.395-.368,7.144-4.172,5.9-12.866,14.587-29.333,26.487-38.735,22.724-17.967,39.018-4.353,32.5,25.327-6.945,35.6-61.868,116.4-61.868,116.4l-1.358.78s-54.923-17.382-61.866-44.959c-6.515-22.157,7.453-57.113,32.508-62.862Z" transform="translate(-1243.495 -807.216)"></path><path class="p" d="M1615.188,1188.269l.009.009-.009-.009Zm39.252-21.924.009.016-.009-.016Zm-27.015,38.815.164-.1a10.681,10.681,0,0,0,4.319-6.11l9.576-36.257,4.957,11.837c.7,1.679,2.478,2.055,4.436.927l17.048-9.841a4.266,4.266,0,0,0-4.265-7.388l-10.158,5.865-7.726-18.436c-.711-1.686-2.487-2.054-4.437-.927l-.056.035a10.7,10.7,0,0,0-4.418,6.167L1627.069,1188l-4.009-8.216c-.756-1.551-2.469-1.85-4.364-.756l-18.369,10.606a4.266,4.266,0,0,0,4.265,7.388l11.608-6.7,6.87,14.073c.765,1.564,2.46,1.853,4.355.759Z" transform="translate(-1246.241 -812.708)"></path><path class="ac" d="M1421.317,1326.51c-9.154,10.554-25.164,32.111-39.252,33.4-19.49,1.786-32.662-24.465-44.222-38.913-5.178-6.469,3.911-15.835,9.159-9.278,9.356,11.695,22.069,23.1,38.146,21.371,10.747-1.16,19.981-7.776,26.891-15.742,5.5-6.338,14.766,2.834,9.278,9.16Z" transform="translate(-760.557 -827.407)"></path><path class="ad" d="M1424.74,1316.743l-4.589-4.692a6.2,6.2,0,1,1,8.865-8.67l4.588,4.691a6.2,6.2,0,1,1-8.864,8.671Z" transform="translate(-847.724 -826.698)"></path><path class="ac" d="M1447.025,1340.138s-20.161,65.585-49.763,35.15c-18.491-19.011-6.4-57.086-6.4-57.086l10.053.954s-.075,44.372,12.595,41,17.542-34.054,23.609-34.952,9.9,14.93,9.9,14.93Z" transform="translate(-830.764 -828.18)"></path><path class="ad" d="M1444.836,1326.4h0a5.9,5.9,0,0,0,5.391-6.346l-1.124-13.863a5.889,5.889,0,0,0-11.739.953l1.125,13.863a5.908,5.908,0,0,0,6.347,5.393Z" transform="translate(-879.874 -826.632)"></path><path class="ae" d="M1432.143,1324.219l16.291-6.713a2.509,2.509,0,0,0,1.306-2.819l-6.466-30.642a1.658,1.658,0,0,0-2.2-1.419l-16.148,6.453a2.513,2.513,0,0,0-1.3,2.82l6.435,30.5c.163.771.486.946,1.138,1.291l.947.534Z" transform="translate(-866.869 -825.009)"></path><path class="ae" d="M1437.379,1296.3s12.4,19.562,12.148,18.391l-6.237-31.584-1.251-.457a1.466,1.466,0,0,0-1.177-.02l-16.148,6.453a2.129,2.129,0,0,0-1.091,1.081l13.755,6.136Z" transform="translate(-866.657 -825.009)"></path><path class="q" d="M1430.92,1324.454l16.1-6.458a2.493,2.493,0,0,0,1.26-2.823l-6.466-30.642a1.638,1.638,0,0,0-2.176-1.418l-16.094,6.459a2.49,2.49,0,0,0-1.25,2.826l6.465,30.642a1.62,1.62,0,0,0,2.156,1.414Z" transform="translate(-864.208 -825.052)"></path><path class="af" d="M1450.808,1295.8l.369,1.749c.026.122-.05.169-.173.1l.022-.011a.488.488,0,0,1-.21-.333l-.369-1.75c-.026-.122,0-.175.118-.109l0,.015a.522.522,0,0,1,.239.337Z" transform="translate(-892.738 -826.156)"></path><path class="af" d="M1450.1,1299.16l.369,1.749c.026.122-.051.169-.174.1l.024-.013a.475.475,0,0,1-.211-.334l-.37-1.75c-.026-.122,0-.174.119-.109l0,.015a.533.533,0,0,1,.24.338Z" transform="translate(-891.382 -826.455)"></path><path class="ag" d="M1430.574,1319.725l15.853-6.335-5.625-27.011-15.756,6.3,5.9,26.408c.048.229-.59.728-.375.642Z" transform="translate(-864.847 -825.353)"></path><path class="p" d="M1437.96,1289.627l4.98-1.992a.454.454,0,0,0,.236-.51.3.3,0,0,0-.4-.259l-4.98,1.991a.458.458,0,0,0-.237.512.3.3,0,0,0,.4.258Z" transform="translate(-873 -825.394)"></path><path class="q" d="M1438.387,1303.92a5.185,5.185,0,0,0,3.1-6.1,4.123,4.123,0,0,0-5.616-2.672,5.184,5.184,0,0,0-3.1,6.1,4.123,4.123,0,0,0,5.617,2.672Zm-3.133-10.92a6.148,6.148,0,0,1,8.376,3.984,7.73,7.73,0,0,1-4.625,9.09,6.148,6.148,0,0,1-8.376-3.984,7.73,7.73,0,0,1,4.625-9.089Z" transform="translate(-867.162 -825.898)"></path><path class="l" d="M1437.947,1302.4a7.524,7.524,0,0,1,1.227-6.429l1.708,1.316a5.041,5.041,0,0,0-.794,4.272,4.067,4.067,0,0,0,4.373,2.973l.085,2.292a6.063,6.063,0,0,1-6.6-4.425Z" transform="translate(-874.48 -826.205)"></path><path class="p" d="M1443.036,1292.95l-.917,2.186a4.331,4.331,0,0,0-3.242.017,5.158,5.158,0,0,0-2.424,2l-1.849-1.115a7.709,7.709,0,0,1,3.654-3.034,6.477,6.477,0,0,1,4.777-.05Z" transform="translate(-870.167 -825.898)"></path><path class="p" d="M1430.758,1313.578l6.925-2.719a1.072,1.072,0,0,0,.551-1.292.853.853,0,0,0-1.105-.641l-6.926,2.719a1.073,1.073,0,0,0-.549,1.292.851.851,0,0,0,1.1.641Z" transform="translate(-860.858 -827.351)"></path><path class="p" d="M1429.6,1317.229l6.925-2.72a1.073,1.073,0,0,0,.55-1.291.854.854,0,0,0-1.105-.642l-6.925,2.721a1.068,1.068,0,0,0-.55,1.291.853.853,0,0,0,1.105.641Z" transform="translate(-858.639 -827.676)"></path><path class="ad" d="M1444.251,1320.771l-.764-3.821c1.323.3,1.482,6.058,1.729,4.964l3.823-15.181a2.509,2.509,0,0,0-4.807-1.091l-1.7,7.545c-.248,1.094.4,7.285,1.723,7.584Z" transform="translate(-883.384 -826.93)"></path><path class="ah" d="M1366.012,1593.5c11.228,0,22.323-2.186,30.481-6.53,15.9-8.466,14.629-21.923-2.835-30.058-8.5-3.96-19.279-5.928-29.933-5.928-11.228,0-22.322,2.187-30.481,6.531-15.9,8.466-14.629,21.923,2.836,30.057,8.5,3.96,19.278,5.928,29.932,5.928" transform="translate(-732.261 -848.866)"></path><path class="q" d="M1355.628,1554.492l-10.017-1.257c-6.7-3.038-9.838-5.32-12.823-3.6l-.846.488c-2.985,1.723-2.608,4.761.84,6.752l14.729,11.7a9.719,9.719,0,0,0,10.844-1.054s1.647-1.486.469-7.746c-.672-3.569-.437-3.7-3.2-5.289Z" transform="translate(-691.003 -848.694)"></path><path class="q" d="M1399.816,1580.969l-9.922,1.87c-7.312-.841-10.993-2.055-13.308.5l-.656.723c-2.315,2.555-1.025,5.332,2.866,6.172l17.6,6.632a9.721,9.721,0,0,0,10-4.321s1.113-1.92-1.924-7.518c-1.732-3.193-1.548-3.387-4.66-4.059Z" transform="translate(-779.22 -851.531)"></path><path class="ai" d="M1376.425,1582.067c0,5.013,12.2,5.013,12.2,0v-16.295h-12.2v16.295Z" transform="translate(-762.743 -850.18)"></path><path class="q" d="M1359.209,1555.975c1.536,6.352,14.217,5.889,16.687,1.783-.805-54.819,5.875-111.745,19.7-169.724h-44.014c-.221,56.223,1.923,112.238,7.63,167.941Z" transform="translate(-747.063 -834.386)"></path><path class="ai" d="M1331.763,1555.77c.277,4.54,12.473,4.54,12.195,0l-.9-14.756h-12.2l.9,14.756Z" transform="translate(-676.566 -847.98)"></path><path class="q" d="M1349.794,1535.607c4.87,5.013,14.455,2.873,16.3-.748l-6.459-146.988-30.651,4.539,20.811,143.2Z" transform="translate(-696.988 -834.372)"></path><path class="ad" d="M1355.06,1283.795c3.023,10.533,10.854,13.5,17.492,6.621s9.57-20.989,6.548-31.522-10.854-13.5-17.492-6.623-9.57,20.99-6.548,31.523Z" transform="translate(-733.861 -821.992)"></path><path class="ad" d="M1363.028,1280.207c3.021,10.533,14.313,14.345,20.952,7.469s9.57-20.99,6.547-31.524-10.853-13.5-17.49-6.621-13.031,20.143-10.008,30.676Z" transform="translate(-752.929 -821.749)"></path><path class="ad" d="M1371.815,1313.431l1.13-.251a7.124,7.124,0,0,0,5.386-8.481l-4.8-21.5a7.124,7.124,0,0,0-8.479-5.388l-1.13.252a7.124,7.124,0,0,0-5.387,8.479l1.571,21.34c.851,3.813,7.892,6.4,11.705,5.55Z" transform="translate(-736.17 -824.576)"></path><path class="aj" d="M1393.069,1281.555s-1.142,9.924-15.241,7.937c-10.115-1.424-7.169-17.88-17.28-19.53-11.124-1.814-13.14-15.556-8.757-20.829s16.634-8.031,25.507-4.117,22.554,3.681,15.77,36.54Z" transform="translate(-744.608 -821.513)"></path><path class="ad" d="M1377.182,1278.246a4.825,4.825,0,1,0,3.307-5.968,4.823,4.823,0,0,0-3.307,5.968Z" transform="translate(-761.283 -824.083)"></path><path class="ac" d="M1397.861,1395.268c-3.6-19.736.27-35.335-.043-56.319,0-37.723,1.81-46.929-18.133-41.191l-5.621,1.492a38.726,38.726,0,0,0-7.8,3.013c-26.294,13.546-33.311,17.724-32.157,33.438-.119,25.882,3.7,54.91,4.239,67.643,5.418,17.9,53.5,4.732,59.514-8.076Z" transform="translate(-733.317 -826.225)"></path><path class="ak" d="M1383.191,1295.3l1.143-2.641a7.242,7.242,0,0,1-5.911,1.541,9.288,9.288,0,0,0,4.768,1.1Z" transform="translate(-760.276 -825.911)"></path><path class="b" d="M1353.793,1037.055a22.916,22.916,0,0,1,11.458-19.846L1475.1,953.788c6.014-3.473,10.936.248,10.936,8.268v71.885a21.253,21.253,0,0,1-10.625,18.4l-100.9,58.253a13.814,13.814,0,0,1-20.72-11.963v-61.578Z" transform="translate(-839.536 -795.682)"></path><g transform="translate(530.253 228.035)"><path class="a" d="M1471.636,1034.184s-5.5-6.883-15.65-1.4c-7.756,4.194-3.678,3.847-12.984,6.876-5.487,1.786-14.007-7.633-27.544-1.276-24.51,11.509-33.054-10.613-43.7,1.839v57.188l99.881-54.633v-8.6Z" transform="translate(-1371.755 -1030.664)"></path><g class="al" transform="translate(0)"><g transform="translate(0 -3.364)"><rect class="a" width="99.881" height="70.112" transform="translate(0)"></rect></g></g></g><path class="p" d="M1371.385,1038.709V981.577a.338.338,0,0,1,.675,0v57.132a.338.338,0,0,1-.675,0" transform="translate(-741.589 -798.238)"></path><path class="p" d="M1398.689,1052.923V995.791a.337.337,0,0,1,.674,0v57.132a.337.337,0,0,1-.674,0" transform="translate(-793.77 -799.501)"></path><path class="p" d="M1425.993,1067.924v-57.132a.338.338,0,1,1,.675,0v57.132a.338.338,0,0,1-.675,0" transform="translate(-845.953 -800.834)"></path><path class="p" d="M1453.3,1082.909v-57.132a.337.337,0,1,1,.674,0v57.132a.337.337,0,0,1-.674,0" transform="translate(-898.133 -802.165)"></path><path class="p" d="M1480.6,1098.866v-57.133a.337.337,0,1,1,.674,0v57.133a.337.337,0,1,1-.674,0" transform="translate(-950.315 -803.583)"></path><path class="p" d="M1476.986,1035.21l3.282-1.99a1.641,1.641,0,0,0,.66-1.28c0-.484-.3-.7-.66-.479l-3.282,1.99a1.641,1.641,0,0,0-.658,1.279c0,.485.3.7.658.48Z" transform="translate(-946.075 -802.693)"></path><path class="p" d="M1473.981,1107.268l3.281-1.99.03-.014,2.436-1.478c.363-.221.66,0,.66.479a1.64,1.64,0,0,1-.66,1.28l-3.281,1.99-.03.015-2.437,1.477c-.363.22-.66,0-.66-.479a1.642,1.642,0,0,1,.66-1.28Z" transform="translate(-942.795 -809.12)"></path><path class="p" d="M1444.045,1089.921l3.28-1.99.03-.014,2.436-1.478c.364-.22.66,0,.66.479a1.636,1.636,0,0,1-.66,1.28l-3.28,1.99-.03.015-2.436,1.477c-.364.22-.661,0-.661-.479a1.64,1.64,0,0,1,.661-1.28Z" transform="translate(-885.581 -807.578)"></path><path class="p" d="M1416.082,1073.92l3.279-1.99.031-.015,2.436-1.477c.364-.221.66,0,.66.479a1.639,1.639,0,0,1-.66,1.28l-3.28,1.989-.031.015-2.436,1.478c-.363.22-.661,0-.661-.479a1.638,1.638,0,0,1,.661-1.28Z" transform="translate(-832.14 -806.156)"></path><path class="p" d="M1389.693,1058.946l3.281-1.99.03-.015,2.437-1.478c.362-.22.66,0,.66.48a1.645,1.645,0,0,1-.66,1.28l-3.282,1.99-.03.014-2.435,1.478c-.363.22-.66,0-.66-.479a1.64,1.64,0,0,1,.66-1.28Z" transform="translate(-781.708 -804.826)"></path><path class="p" d="M1449.279,1021.164l3.281-1.99a1.64,1.64,0,0,0,.66-1.279c0-.485-.3-.7-.66-.48l-3.281,1.99a1.642,1.642,0,0,0-.661,1.28c0,.484.3.7.661.479Z" transform="translate(-893.118 -801.444)"></path><path class="p" d="M1422.178,1007.279l3.281-1.989a1.642,1.642,0,0,0,.66-1.281c0-.483-.3-.7-.66-.479l-3.281,1.99a1.64,1.64,0,0,0-.661,1.28c0,.484.3.7.661.479Z" transform="translate(-841.324 -800.211)"></path><path class="p" d="M1394.686,993.053l3.281-1.99a1.641,1.641,0,0,0,.659-1.28c0-.484-.3-.7-.659-.479l-3.281,1.99a1.641,1.641,0,0,0-.659,1.28c0,.484.3.7.659.479Z" transform="translate(-788.784 -798.946)"></path><path class="p" d="M1367.6,978.653l3.281-1.99a1.644,1.644,0,0,0,.659-1.28c0-.484-.3-.7-.659-.479l-3.281,1.99a1.641,1.641,0,0,0-.661,1.28c0,.484.3.7.661.479Z" transform="translate(-737.021 -797.667)"></path><path class="p" d="M1361.592,1043.847l3.28-1.99.031-.015,2.435-1.478c.363-.22.661,0,.661.48a1.639,1.639,0,0,1-.661,1.279l-3.28,1.991-.03.014-2.436,1.478c-.364.22-.66,0-.66-.48a1.636,1.636,0,0,1,.66-1.279Z" transform="translate(-728.004 -803.484)"></path><path class="b" d="M1487.485,946.169l-53.5,32.677a11.009,11.009,0,0,1-16.748-9.395V864.29c0-6.872,2.414-11.052,6.331-13.314l61.374-35.435a7.842,7.842,0,0,1,11.763,6.791V930.2a18.441,18.441,0,0,1-9.22,15.969Z" transform="translate(-908.011 -783.419)"></path><path class="l" d="M1439.65,929.269c-.255,12.351,8.259,17.567,19.016,11.649,5.573-3.067,10.657-8.521,14.3-14.784,3.383-5.823,8.247-12.75,8.37-18.7.254-12.351-12.761-20.725-23.518-14.808-8.9,4.9-14.777,19.453-17.293,30.1a31.38,31.38,0,0,0-.869,6.546Zm45.133-24.3c-.176,8.475.3,15.334-4.357,23.712-5.464,9.83-13.328,18.459-21.988,23.223-16.041,8.825-28.736,1.048-28.355-17.372a46.379,46.379,0,0,1,1.166-9.2c3.615-16.047,16.773-29.95,30.205-37.34,16.042-8.824,23.709-1.438,23.329,16.981Z" transform="translate(-907.801 -789.621)"></path><path class="p" d="M1460.281,884.94c9.817-5.4,18.374-4.574,23.455,1.1l-8.063,10.506c-3.42-3.694-9.106-4.2-15.619-.615-8.9,4.9-16.549,15.888-19.064,26.535l-9.239,2.472c3.647-16.007,15.133-32.623,28.53-39.993Z" transform="translate(-908.266 -789.357)"></path><path class="q" d="M1433.506,928.772l-7.143-3.1a38.964,38.964,0,0,0,5.324-17.737c.108-5.216-1.352-9.153-3.881-11.523l7.49-11.084c3.876,3.514,6.121,9.448,5.959,17.344-.175,8.475-3.093,17.724-7.749,26.1Z" transform="translate(-860.885 -789.714)"></path><path class="p" d="M1433.462,868.778l9.412-5.434a6.644,6.644,0,0,0,2.774-5.3c0-2.044-1.241-2.983-2.774-2.1l-9.412,5.434a6.648,6.648,0,0,0-2.776,5.3c0,2.043,1.244,2.983,2.776,2.1Z" transform="translate(-869.209 -787.074)"></path><path class="p" d="M1454.842,879.278l9.413-5.434a6.647,6.647,0,0,0,2.775-5.3c0-2.044-1.243-2.983-2.775-2.1l-9.413,5.435a6.648,6.648,0,0,0-2.775,5.3c0,2.044,1.244,2.983,2.775,2.1Z" transform="translate(-910.072 -788.007)"></path><path class="p" d="M1476.224,891.084l9.413-5.434a6.652,6.652,0,0,0,2.775-5.3c0-2.043-1.243-2.983-2.775-2.1l-9.413,5.434a6.647,6.647,0,0,0-2.775,5.3c0,2.044,1.243,2.983,2.775,2.1Z" transform="translate(-950.935 -789.056)"></path><path class="l" d="M1434.086,869.6l52.51-30.317a5.725,5.725,0,0,0,2.394-4.571c0-1.762-1.071-2.572-2.394-1.809l-52.51,30.317a5.725,5.725,0,0,0-2.394,4.572c0,1.761,1.071,2.571,2.394,1.808Z" transform="translate(-913.466 -785.03)"></path><path class="am" d="M1483.388,1508.272h-.018l.829-19.343,10.26-.161a58.44,58.44,0,0,1,8.536-6.167c25.02-15,65.979-15.684,91.484-1.519a51.786,51.786,0,0,1,8.673,5.977l11.548-.181-.845,20.644c0,.6-.024,1.2-.072,1.8l-.007.159h-.011c-.787,8.792-6.9,17.518-18.406,24.417-25.02,15-65.53,15.7-91.506,1.819-14.678-7.839-21.084-17.686-20.464-27.444Z" transform="translate(-1086.241 -841.748)"></path><path class="p" d="M1502.968,1458.439c25.02-15,65.978-15.684,91.484-1.519s25.9,37.812.878,52.817-65.529,15.7-91.506,1.82c-28.555-15.255-25.876-38.113-.856-53.117Z" transform="translate(-1085.339 -839.601)"></path><path class="an" d="M1502.968,1455.163c25.02-15,65.978-15.684,91.484-1.519s25.9,37.812.878,52.817-65.529,15.7-91.506,1.819c-28.555-15.254-25.876-38.112-.856-53.117Z" transform="translate(-1085.339 -839.31)"></path></svg> 