<svg xmlns="http://www.w3.org/2000/svg" viewBox="0 0 351 281" width="351" height="281">
	<defs>
		<linearGradient id="grd1" gradientUnits="userSpaceOnUse"  x1="246.194" y1="87.367" x2="288.816" y2="44.745">
			<stop offset="0" stop-color="#88beff"  />
			<stop offset="0.136" stop-color="#80b3fd"  />
			<stop offset="0.374" stop-color="#6b95f7"  />
			<stop offset="0.484" stop-color="#6186f5"  />
			<stop offset="0.995" stop-color="#366bc1"  />
		</linearGradient>
		<linearGradient id="grd2" gradientUnits="userSpaceOnUse"  x1="253.736" y1="67.206" x2="262.573" y2="66.67">
			<stop offset="0" stop-color="#88beff"  />
			<stop offset="0.136" stop-color="#80b3fd"  />
			<stop offset="0.374" stop-color="#6b95f7"  />
			<stop offset="0.484" stop-color="#6186f5"  />
			<stop offset="0.995" stop-color="#366bc1"  />
		</linearGradient>
	</defs>
	<style>
		tspan { white-space:pre }
		.shp0 { fill: #dcefff } 
		.shp1 { fill: #283d75 } 
		.shp2 { fill: #1f66eb } 
		.shp3 { fill: #1951ba } 
		.shp4 { fill: #b3c8e6 } 
		.shp5 { fill: #4c73db } 
		.shp6 { fill: #4780eb } 
		.shp7 { fill: #2c4482 } 
		.shp8 { fill: #4265c2 } 
		.shp9 { fill: #6198d9 } 
		.shp10 { fill: #e9f5ff } 
		.shp11 { fill: #ff619a } 
		.shp12 { fill: url(#grd1) } 
		.shp13 { fill: #d9eaff } 
		.shp14 { fill: #174082 } 
		.shp15 { fill: #152859 } 
		.shp16 { fill: #6ca4ff } 
		.shp17 { fill: #fcfeff } 
		.shp18 { fill: #ffc2b0 } 
		.shp19 { fill: #d18b77 } 
		.shp20 { fill: #ffffff } 
		.shp21 { fill: #1e3980 } 
		.shp22 { fill: url(#grd2) } 
		.shp23 { fill: #fbfbff } 
		.shp24 { fill: #1d3570 } 
		.shp25 { fill: #25469e } 
		.shp26 { fill: #a8c4e5 } 
		.shp27 { fill: #f5f9ff } 
		.shp28 { opacity: 0.188;fill: #88bdeb } 
		.shp29 { fill: #aec9eb } 
		.shp30 { fill: #81a0c7 } 
		.shp31 { fill: #012954 } 
		.shp32 { fill: #8aacce } 
		.shp33 { fill: #3171bd } 
		.shp34 { fill: #7da5d4 } 
		.shp35 { fill: #9ec4f0 } 
		.shp36 { fill: #b7d8f7 } 
		.shp37 { fill: #754040 } 
		.shp38 { fill: #514677 } 
		.shp39 { fill: #1c4591 } 
		.shp40 { fill: none;stroke: #ffc2b0;stroke-width: 9.204 } 
		.shp41 { fill: #5288c7 } 
		.shp42 { fill: #915151 } 
		.shp43 { fill: #f0b6a5 } 
		.shp44 { opacity: 0.4;fill: #a8c4e5 } 
		.shp45 { fill: #2b337c } 
		.shp46 { fill: #013d7d } 
		.shp47 { fill: #5abddc } 
		.shp48 { fill: #467de4 } 
		.shp49 { fill: #3970c6 } 
		.shp50 { fill: #649bf2 } 
		.shp51 { fill: #6b6b9b } 
		.shp52 { fill: none;stroke: #ffffff;stroke-linecap:round;stroke-width: 3.302 } 
		.shp53 { fill: #21275e } 
		.shp54 { fill: #a35b5b } 
	</style>
	<g id="Doktor_Hasta">
		<path id="Path 4615" class="shp0" d="M243.83 277.44L74.63 177.29L79.29 176.19L176.52 118.98L346.11 216.89L243.83 277.44Z" />
		<path id="Path 4616" class="shp1" d="M102.53 205.17L102.53 205.17C103.54 205.02 104.23 204.08 104.08 203.07L95.39 144.46C95.24 143.45 94.3 142.75 93.29 142.9L93.29 142.9C92.28 143.05 91.59 143.99 91.74 145L100.43 203.61C100.58 204.62 101.52 205.32 102.53 205.17Z" />
		<path id="Path 4617" class="shp2" d="M61.16 130.16L45.4 88.47C42.81 81.61 35.6 78.61 29.79 81.97L6.54 95.41C2.36 97.84 0.01 102.98 0.69 108.28L7.59 162.55L61.16 130.16Z" />
		<path id="Path 4618" class="shp3" d="M262.32 87.65L230.99 111.86C225.87 114.99 222.03 111.88 222.03 106.5L221.44 97.73C221.44 92.35 225.63 85.38 230.75 82.25L262.34 62.91C267.46 59.77 271.64 61.61 271.63 67L271.63 72.17C271.62 77.55 267.43 84.52 262.32 87.65Z" />
		<path id="Path 4619" class="shp4" d="M248.7 42.81L232.82 68.87L243.67 77.34L250.59 66.94L248.7 42.81Z" />
		<g id="Group 4303">
			<path id="Path 4620" class="shp2" d="M257.67 86.67L273.27 45.42C275.84 38.63 282.97 35.66 288.72 38.99L311.72 52.29C315.87 54.69 318.18 59.78 317.52 65.02L310.69 118.72L257.67 86.67Z" />
			<path id="Path 4621" class="shp1" d="M218.8 164.71L218.8 164.71C217.8 164.56 217.11 163.63 217.26 162.63L225.86 104.63C226.01 103.63 226.94 102.94 227.94 103.09L227.94 103.09C228.94 103.24 229.63 104.17 229.48 105.17L220.88 163.17C220.73 164.17 219.8 164.86 218.8 164.71Z" />
			<path id="Path 4622" class="shp1" d="M305.5 166.75L305.5 166.75C306.76 166.56 307.63 165.39 307.44 164.13L300.15 114.98C299.96 113.72 298.79 112.85 297.53 113.04L297.53 113.04C296.27 113.23 295.4 114.4 295.59 115.66L302.88 164.81C303.07 166.06 304.24 166.93 305.5 166.75Z" />
			<path id="Path 4623" class="shp1" d="M262.56 189.84L262.56 189.84C261.31 189.65 260.45 188.49 260.64 187.24L270.22 122.59C270.41 121.35 271.57 120.49 272.82 120.67L272.82 120.67C274.07 120.86 274.93 122.02 274.74 123.26L265.15 187.91C264.97 189.16 263.81 190.02 262.56 189.84Z" />
			<path id="Path 4624" class="shp3" d="M269.63 136.82L225.45 111.32C221.36 108.96 223.02 103.77 229.14 99.8L245.01 89.49C251.13 85.52 259.49 84.2 263.58 86.57L307.75 112.07C311.85 114.43 310.19 119.62 304.07 123.59L288.19 133.9C282.07 137.87 273.72 139.19 269.63 136.82Z" />
			<path id="Path 4625" class="shp5" d="M267.25 143.02L228.2 120.47C224 118.05 221.68 113.22 221.68 113.22C220.11 109.61 223.86 107 228.05 109.43L269.11 133.6C273.31 136.02 274.9 138.56 274.22 141.56C274.22 141.56 272.57 145.76 267.25 143.02Z" />
			<path id="Path 4626" class="shp6" d="M307.02 123.46L275.89 142.52C270.85 145.61 266.95 144.16 267.23 139.3L267.5 134.63C267.78 129.78 272.13 123.28 277.17 120.19L308.3 101.13C313.34 98.05 317.24 99.5 316.96 104.35L316.69 109.02C316.41 113.88 312.06 120.38 307.02 123.46Z" />
		</g>
		<g id="Group 4305">
			<path id="Path 4627" class="shp7" d="M84.53 186.13L83.83 186.07C82.61 185.96 81.71 184.9 81.82 183.68L89.21 97.83C89.32 96.62 90.39 95.72 91.6 95.82L92.31 95.88C93.52 95.99 94.42 97.06 94.31 98.27L86.92 184.12C86.82 185.33 85.75 186.23 84.53 186.13Z" />
			<path id="Path 4628" class="shp8" d="M348.74 217.38L348.74 217.38C350.16 217.2 351.16 215.91 350.98 214.49L342.57 149.07C342.39 147.65 341.09 146.65 339.68 146.83L339.68 146.83C338.26 147.01 337.26 148.31 337.44 149.72L345.85 215.15C346.03 216.57 347.33 217.57 348.74 217.38Z" />
			<path id="Path 4629" class="shp8" d="M241.71 280.71L241.71 280.71C240.31 280.59 239.26 279.35 239.38 277.94L249.44 161.18C249.56 159.77 250.8 158.73 252.21 158.85L252.21 158.85C253.62 158.97 254.66 160.21 254.54 161.62L244.48 278.38C244.36 279.79 243.12 280.83 241.71 280.71Z" />
			<path id="Path 4630" class="shp7" d="M249.89 215.67L245.01 212.34L246.41 198.32L251.59 199.13L249.89 215.67Z" />
			<path id="Path 4631" class="shp7" d="M340.31 172.01L345.01 168.43L343.24 154.28L337.76 155.57L340.31 172.01Z" />
			<g id="Group 4304">
				<path id="Rectangle 324" class="shp9" d="M83.41 96.42L96.98 96.42L96.98 104.31L83.41 104.31L83.41 96.42Z" />
				<path id="Rectangle 325" class="shp9" d="M330.22 146.83L343.79 146.83L343.79 154.72L330.22 154.72L330.22 146.83Z" />
				<path id="Path 4632" class="shp9" d="M252.79 203.77L85.14 106.98C82.51 105.46 82.84 102.81 85.87 101.06L164.11 55.89C167.14 54.14 171.73 53.95 174.36 55.46L342.02 152.26C344.65 153.78 344.32 156.43 341.28 158.18L263.05 203.35C260.01 205.1 255.42 205.29 252.79 203.77Z" />
				<path id="Path 4633" class="shp10" d="M252.79 196.21L85.14 99.41C82.51 97.9 82.84 95.25 85.87 93.49L164.11 48.33C167.14 46.57 171.73 46.38 174.36 47.9L342.02 144.7C344.65 146.22 344.32 148.87 341.28 150.62L263.05 195.79C260.01 197.54 255.42 197.73 252.79 196.21Z" />
			</g>
		</g>
		<path id="Path 4634" class="shp11" d="M250.63 71.69L250.59 71.67C250.59 71.67 250.61 71.68 250.63 71.69Z" />
		<path id="Path 4635" class="shp12" d="M288.54 79.78L301.13 60.04C300.96 58.08 300.12 56.34 298.85 55.02C298.21 54.09 297.4 53.23 296.38 52.51C292.14 49.47 282.47 42.78 276.63 39.94C268.65 36.05 259.07 34.25 252.77 38.3C251.66 38.83 250.61 39.74 249.63 41.18L249.63 41.19C249.17 41.78 248.88 42.31 248.7 42.81C247.38 48.05 247.58 56.46 247.11 65.5C247.53 68.9 250.79 90.42 250.93 92.1L272.18 104.4C276.58 99.4 288.94 84.76 288.54 79.78Z" />
		<path id="Path 4636" class="shp13" d="M261.41 36.01C258.22 36.03 255.24 36.71 252.77 38.3C251.66 38.83 250.61 39.74 249.63 41.18L249.63 41.19C249.17 41.78 248.88 42.31 248.7 42.81C245.81 49.17 249.3 67.76 244.81 88.59L256.92 95.58C256.92 95.58 266.34 35.99 261.41 36.01Z" />
		<path id="Path 4637" class="shp13" d="M291.93 85.25L301.13 60.04C300.96 58.08 300.12 56.34 298.85 55.02C298.21 54.09 297.4 53.23 296.38 52.51C292.14 49.47 292.28 49.18 286.35 46.56C280.94 44.18 264.04 99.69 264.02 99.68L279.72 108.71C279.8 108.76 286.07 91.27 286.15 91.31L286.58 91.55C286.58 91.55 286.59 91.55 286.61 91.54C286.61 91.54 292.33 90.23 291.93 85.25Z" />
		<path id="Path 4638" class="shp14" d="M281.26 44.91L261.92 44.36L265 33.89C271.41 33.77 275.93 35.82 281.32 39.49L281.26 44.91Z" />
		<path id="Path 4639" class="shp15" d="M268.37 46.56C268.37 46.56 269.91 47.09 271.27 46.79L276.19 55.15L275.94 55.42C275.15 56.27 273.69 56.18 273.17 55.24L268.37 46.56Z" />
		<path id="Path 4640" class="shp15" d="M273.21 47.43C273.21 47.43 271.72 47.31 270.76 46.56L262.98 51.67L263.07 51.99C263.32 52.98 264.54 53.44 265.39 52.86L273.21 47.43Z" />
		<path id="Path 4641" class="shp15" d="M270.24 53.93C270.24 54.52 269.82 54.77 269.3 54.46C268.78 54.16 268.35 53.44 268.35 52.84C268.35 52.24 268.78 52 269.3 52.3C269.82 52.6 270.24 53.33 270.24 53.93Z" />
		<path id="Path 4642" class="shp15" d="M270.24 58.19C270.24 58.79 269.82 59.03 269.3 58.73C268.78 58.43 268.35 57.7 268.35 57.1C268.35 56.51 268.78 56.27 269.3 56.57C269.82 56.87 270.24 57.6 270.24 58.19Z" />
		<path id="Path 4643" class="shp15" d="M270.24 62.46C270.24 63.06 269.82 63.3 269.3 63C268.78 62.7 268.35 61.97 268.35 61.37C268.35 60.77 268.78 60.53 269.3 60.83C269.82 61.14 270.24 61.86 270.24 62.46Z" />
		<path id="Path 4644" class="shp16" d="M272.14 46.24C272.14 46.24 266.9 46.22 265.92 37.09L262.43 36.61C261.95 36.99 260.94 36.73 260.47 39.78C260.19 41.6 260.32 43.45 260.76 45.23L262.06 50.43C262.35 51.6 263.78 52.13 264.76 51.44L272.14 46.24Z" />
		<path id="Path 4645" class="shp17" d="M272.28 46.26C272.28 46.26 270.8 46.13 269.83 45.39L262.06 50.49L262.14 50.81C262.39 51.81 263.61 52.27 264.46 51.69L272.28 46.26Z" />
		<path id="Path 4646" class="shp18" d="M269.44 43.96L267.3 25.38L278.04 30.5L279.78 45.68C280.25 48.18 271.53 53.59 269.44 43.96Z" />
		<path id="Path 4647" class="shp19" d="M269.01 40.85C269.17 41.32 274.6 39.51 274.44 38.93C274.44 38.93 272.09 42.39 269.38 43.48L269.01 40.85Z" />
		<path id="Path 4648" class="shp16" d="M269.54 45.84C269.54 45.84 275.42 47.87 281.33 39.49L285.88 44.53C286.22 45.27 286.09 45.46 285.49 46.11L277.57 54.95C276.65 55.95 274.95 55.84 274.36 54.74L269.54 45.84Z" />
		<path id="Path 4649" class="shp17" d="M269.54 45.84C269.54 45.84 270.93 46.07 272.28 45.98L277.46 54.78L277.2 55.05C276.41 55.9 274.96 55.81 274.43 54.88L269.54 45.84Z" />
		<path id="Path 4650" class="shp20" d="M257.12 36.87C255.25 44.9 251.75 54.04 252.83 59.74L256.73 59.29L254.17 66.38L254.4 68.67C254.75 72.25 255.39 75.8 256.31 79.28L258.25 86.6C261.3 71.67 261.63 49.76 266.27 34.53C262.53 34.37 261.34 35.09 257.12 36.87Z" />
		<path id="Path 4651" class="shp20" d="M293.01 49.16L281.78 69.01L276.2 67.92L276.56 76.66L275.44 78.75C273.61 82.15 271.36 85.31 268.73 88.15L267.17 89.83C269.1 83.26 272.7 67.13 276.15 59.29C278.65 53.61 281.92 44.89 281.33 39.49C285.07 41.4 289.87 45.74 293.01 49.16Z" />
		<g id="Group 4308">
			<g id="Group 4306">
				<path id="Path 4652" class="shp21" d="M280.18 39.41C282.03 41 283.63 42.96 283.13 45.57C282.74 47.58 281.64 49.32 281.35 51.39C280.77 55.43 281.85 59.46 281.96 63.49C282 64.68 283.85 64.67 283.82 63.47C283.67 58.12 282.24 53.22 284.24 48.02C285.8 43.99 284.72 40.88 281.49 38.1C280.59 37.33 279.27 38.63 280.18 39.41L280.18 39.41Z" />
			</g>
			<g id="Group 4307">
				<path id="Path 4653" class="shp21" d="M282.29 47.44C279.87 52.02 273.92 54.82 274.22 60.78C274.29 61.97 276.14 61.95 276.08 60.76C275.8 55.37 281.68 52.55 283.89 48.36C284.45 47.31 282.85 46.38 282.29 47.44L282.29 47.44Z" />
			</g>
			<path id="Path 4654" class="shp16" d="M280.59 65.46L274.57 78.43C273.16 81.19 272.15 82.66 268.63 81.12C268.44 81.62 268.26 82.12 268.1 82.62L268.64 82.88C271.2 84.06 274.25 82.98 275.43 80.42L282.65 64.88C283.84 62.33 281.75 62.95 280.59 65.46Z" />
			<path id="Rectangle 326" class="shp21" d="M268.01 83.18L266.37 82.63C265.76 82.42 265.42 81.76 265.63 81.14L265.63 81.14C265.84 80.52 266.5 80.19 267.12 80.4L268.75 80.95C269.37 81.15 269.7 81.82 269.5 82.44L269.5 82.44C269.29 83.05 268.62 83.38 268.01 83.18Z" />
			<path id="Path 4655" class="shp16" d="M276.08 63.65L276.1 77.95C276.21 81.05 276.51 82.81 280.35 82.88C280.31 83.42 280.27 83.95 280.2 84.48L279.6 84.48C276.79 84.48 274.47 82.21 274.47 79.4L274.45 62.26C274.45 59.44 276.08 60.89 276.08 63.65Z" />
			<path id="Rectangle 327" class="shp21" d="M280.31 82.68L282.02 82.87C282.67 82.94 283.14 83.52 283.06 84.17L283.06 84.17C282.99 84.81 282.41 85.28 281.76 85.21L280.05 85.02C279.41 84.95 278.94 84.36 279.01 83.72L279.01 83.72C279.08 83.07 279.66 82.61 280.31 82.68Z" />
			<path id="Rectangle 328" class="shp21" d="M282.44 64.79L281.97 64.65C281.31 64.46 280.93 63.77 281.12 63.11L281.12 63.11C281.31 62.45 282 62.07 282.66 62.26L283.12 62.39C283.79 62.58 284.17 63.27 283.98 63.93L283.98 63.93C283.79 64.6 283.1 64.98 282.44 64.79Z" />
			<path id="Rectangle 329" class="shp21" d="M275.52 62.72L275.04 62.69C274.35 62.64 273.84 62.04 273.89 61.35L273.89 61.35C273.94 60.66 274.54 60.15 275.23 60.2L275.71 60.24C276.4 60.29 276.91 60.89 276.86 61.57L276.86 61.57C276.81 62.26 276.21 62.78 275.52 62.72Z" />
		</g>
		<g id="Group 4312">
			<g id="Group 4310">
				<g id="Group 4309">
					<path id="Path 4656" class="shp21" d="M259.39 64.65C260.07 57.72 260.24 50.68 261.35 43.8C262.09 39.28 263.41 33.88 268.59 32.87C269.62 32.66 269.49 31.01 268.45 31.22C263.68 32.16 261.47 35.91 260.35 40.36C258.41 48.11 258.54 56.44 257.77 64.35C257.66 65.4 259.29 65.71 259.39 64.65L259.39 64.65Z" />
				</g>
			</g>
			<g id="Group 4311">
				<path id="Ellipse 6344" class="shp22" d="M258.42 71.36C255.98 71.5 253.89 69.65 253.74 67.21C253.59 64.76 255.44 62.67 257.89 62.52C260.33 62.37 262.42 64.23 262.57 66.67C262.72 69.11 260.86 71.21 258.42 71.36Z" />
				<path id="Ellipse 6345" class="shp23" d="M258.41 69.42C256.53 69.5 254.93 68.05 254.85 66.17C254.76 64.29 256.21 62.69 258.1 62.61C259.98 62.52 261.57 63.97 261.66 65.86C261.74 67.74 260.29 69.33 258.41 69.42Z" />
				<path id="Path 4657" class="shp21" d="M255.28 63.43C254.6 65.18 255.46 67.16 257.21 67.85C258.97 68.53 260.95 67.67 261.63 65.91C262.32 64.16 261.45 62.18 259.7 61.5C257.94 60.81 255.97 61.68 255.28 63.43Z" />
			</g>
		</g>
		<g id="Group 4313">
			<path id="Path 4658" class="shp18" d="M268.4 40.84L263.8 40.66C258.36 40.51 255.11 36.03 255.25 30.6L255.74 12.66C255.88 7.23 260.45 2.9 265.88 3.05L269.41 3.14C274.84 3.29 279.17 7.85 279.02 13.29L278.54 31.23C278.39 36.66 273.83 40.99 268.4 40.84Z" />
		</g>
		<path id="Path 4659" class="shp1" d="M269.82 17.31C266.03 18.82 261.13 18.73 257.14 16.91C252.81 14.93 250.08 9.51 253.75 6.49C255.73 4.85 260.86 3.07 264.96 1.69C276.6 -2.24 288.33 3.83 287.98 16.83C287.98 16.83 289.21 34.33 278.71 36.32L278.71 36.32C277.79 35.14 277.67 33.54 278.36 32.21C279.1 30.82 279.38 28.8 276.9 26.77C275.57 25.67 274.36 23.11 274.62 20.96C274.89 18.79 271.86 16.5 269.82 17.31Z" />
		<path id="Path 4660" class="shp18" d="M279.91 31.74C278.37 33.1 276.55 32.71 275.83 30.86C275.12 29.01 275.79 26.39 277.32 25.03C278.86 23.66 280.68 24.05 281.4 25.9C282.11 27.75 281.45 30.37 279.91 31.74Z" />
		<path id="Path 4661" class="shp24" d="M266.72 28.39C266.73 29.37 266.29 30.17 265.74 30.18C265.19 30.18 264.74 29.4 264.73 28.42C264.72 27.43 265.15 26.63 265.7 26.63C266.25 26.62 266.71 27.41 266.72 28.39Z" />
		<path id="Path 4662" class="shp24" d="M259.75 24.83C259.79 25.81 259.42 26.62 258.93 26.64C258.45 26.65 258.03 25.87 258 24.89C257.96 23.92 258.33 23.11 258.81 23.09C259.3 23.08 259.72 23.86 259.75 24.83Z" />
		<g id="Group 4315">
			<g id="Group 4314">
				<path id="Path 4663" class="shp24" d="M265.28 24.81C266.44 24.9 267.48 25.68 268.2 26.56C268.8 27.3 269.93 26.34 269.33 25.6C268.37 24.43 266.95 23.45 265.41 23.33C264.46 23.25 264.33 24.73 265.28 24.81L265.28 24.81Z" />
			</g>
		</g>
		<g id="Group 4317">
			<g id="Group 4316">
				<path id="Path 4664" class="shp24" d="M257.35 20.26C258.43 20.38 259.37 20.95 260.03 21.81C260.61 22.57 261.74 21.61 261.16 20.85C260.27 19.69 258.93 18.94 257.48 18.78C256.53 18.68 256.4 20.16 257.35 20.26L257.35 20.26Z" />
			</g>
		</g>
		<path id="Path 4665" class="shp19" d="M277.66 27.83C277.66 27.83 279.45 26.14 279.95 27.88C280.46 29.62 277.98 31.2 277.98 31.2C277.98 31.2 279.25 29.82 278.46 28.98C277.68 28.15 277.66 27.83 277.66 27.83Z" />
		<path id="Path 4666" class="shp20" d="M258.44 30.7L263.44 33.35C263.65 33.46 263.76 33.69 263.71 33.92C263.52 34.73 262.79 36.43 260.05 35.18C258.12 34.31 257.73 32.33 257.67 31.18C257.65 30.77 258.08 30.51 258.44 30.7Z" />
		<path id="Ellipse 6346" class="shp25" d="M258.61 66.27C257.56 66.27 256.71 65.42 256.71 64.38C256.71 63.33 257.56 62.48 258.61 62.48C259.66 62.48 260.51 63.33 260.51 64.38C260.51 65.42 259.66 66.27 258.61 66.27Z" />
		<path id="Path 4667" class="shp26" d="M225.5 46.02C225.5 46.02 216.49 46.25 215.93 51.43L221.76 53.4L225.5 46.02Z" />
		<path id="Path 4668" class="shp26" d="M227.44 48.6C227.44 48.6 218.99 50.18 216.77 56.11L226.01 58.19L227.44 48.6Z" />
		<g id="Group 4318">
			<path id="Path 4669" class="shp18" d="M232.11 77.04C228.6 72.07 225.22 67 222.69 61.44C220.69 57.03 218.84 52.59 216.51 48.32C214.27 44.23 220.53 40.57 222.76 44.67C225.09 48.94 226.94 53.37 228.95 57.79C231.47 63.34 234.85 68.41 238.37 73.38C241.06 77.2 234.78 80.82 232.11 77.04L232.11 77.04Z" />
		</g>
		<path id="Path 4670" class="shp27" d="M218.21 56.53C218.21 56.53 226 56.65 227.58 50.41L225.5 46.02C225.5 46.02 221.4 52.35 215.93 51.43L218.21 56.53Z" />
		<g id="Group 4319">
			<path id="Path 4671" class="shp18" d="M203.6 35.69C203.6 35.69 205.85 42.77 207.82 43.41C209.78 44.04 207.04 33.74 203.6 35.69Z" />
			<path id="Path 4672" class="shp18" d="M204.58 40.27C204.58 40.27 207.9 46.18 217.03 47.5C217.03 47.5 205.98 38.19 204.58 40.27Z" />
			<path id="Path 4673" class="shp18" d="M203.91 42.38C203.91 42.38 208.18 49.56 217.71 50.07C217.71 50.07 218.83 46.45 217.6 45.48C214.34 42.91 204.92 40.88 203.91 42.38Z" />
			<path id="Path 4674" class="shp18" d="M200.9 33.65C200.9 33.65 203.69 40.55 205.7 41.04C207.71 41.52 204.19 31.46 200.9 33.65Z" />
			<path id="Path 4675" class="shp18" d="M200.9 36.67C200.9 36.67 203.69 43.57 205.7 44.05C207.71 44.54 204.19 34.48 200.9 36.67Z" />
			<path id="Path 4676" class="shp18" d="M218.13 49.49L208.85 42.93C208.85 42.93 200.3 31.35 201.93 29.42C204.06 26.91 207.61 35.52 207.61 35.52C207.61 35.52 213.97 40.85 214.2 40.73C214.29 40.68 215.04 40.97 215.4 40.53C216.01 39.8 215.71 39.47 215.08 38.73L212.53 36.43C212.53 36.43 208.94 33.39 210.52 32.4C211.93 31.51 214.29 34.7 214.29 34.7L220.2 38.93L222.89 43.01C224.14 44.9 223.89 47.42 222.29 49.03L222.18 49.14C221.1 50.23 219.39 50.38 218.13 49.49Z" />
		</g>
		<path id="Path 4677" class="shp13" d="M243.67 77.34L227.44 48.6C227.58 50.41 224.91 55.61 216.77 56.11L229.91 78.83C231.77 82.04 235.85 83.27 239.11 81.51C240.85 80.57 242.35 79.15 243.67 77.34Z" />
		<path id="Path 4678" class="shp26" d="M256.91 113.2C256.91 113.2 256.29 122.19 261.39 123.23L263.9 117.62L256.91 113.2Z" />
		<g id="Group 4320">
			<path id="Path 4679" class="shp18" d="M288.42 109.54C283.14 112.57 277.77 115.46 272 117.44C267.41 119.03 262.82 120.45 258.35 122.36C254.06 124.2 251.01 117.63 255.3 115.79C259.77 113.88 264.36 112.45 268.95 110.87C274.72 108.88 280.09 106 285.37 102.97C289.42 100.65 292.43 107.24 288.42 109.54L288.42 109.54Z" />
		</g>
		<path id="Path 4680" class="shp27" d="M266.69 121.45C266.69 121.45 267.53 113.7 261.48 111.54L256.91 113.2C256.91 113.2 262.83 117.87 261.39 123.23L266.69 121.45Z" />
		<path id="Path 4681" class="shp13" d="M289.81 98.07L259.66 111.51C261.48 111.54 266.4 114.68 266.13 122.84L287.63 112.98C293.49 110.3 294.73 102.45 289.91 98.16C289.88 98.13 289.84 98.1 289.81 98.07Z" />
		<path id="Path 4682" class="shp13" d="M287.89 66.94C285.83 81.99 283.01 95.83 277.46 105.3L292.31 108.25C301.03 93.89 303.78 76.13 301.01 59.15L287.89 66.94Z" />
		<path id="Path 4683" class="shp4" d="M274.85 103.95C274.85 103.95 287.65 86.99 288.61 76.99C288.61 76.99 288.6 89.61 284.31 96.49L274.85 103.95Z" />
		<g id="Group 4321">
			<path id="Path 4684" class="shp26" d="M257.96 122.96L195.3 90.32C194.95 90.13 194.53 90.13 194.19 90.33L176.11 101C175.4 101.42 175.4 102.47 176.12 102.88L235.48 137.15C235.82 137.35 236.23 137.35 236.57 137.15L258 124.73C258.59 124.39 258.55 123.31 257.96 122.96Z" />
			<path id="Path 4685" class="shp20" d="M235.48 134.92L176.12 100.65C175.4 100.24 175.52 99.14 176.35 98.68L197.06 86.96C197.45 86.74 197.9 86.73 198.24 86.92L257.8 121.31C258.52 121.73 258.39 122.83 257.56 123.29L236.65 134.89C236.26 135.11 235.82 135.12 235.48 134.92Z" />
			<path id="Path 4686" class="shp26" d="M194.37 96.2C194.27 96.26 194.08 96.23 193.93 96.15L189.93 93.84C189.78 93.76 189.74 93.64 189.84 93.59L192.49 92.06C192.59 92 192.78 92.02 192.93 92.11L196.93 94.42C197.08 94.5 197.12 94.61 197.02 94.67L194.37 96.2Z" />
			<path id="Path 4687" class="shp26" d="M199.01 103.1C198.92 103.16 198.72 103.14 198.58 103.05L194.57 100.74C194.43 100.66 194.39 100.54 194.49 100.49L197.14 98.96C197.23 98.9 197.43 98.92 197.57 99.01L201.58 101.32C201.72 101.4 201.76 101.51 201.67 101.57L199.01 103.1Z" />
			<path id="Path 4688" class="shp26" d="M196.66 105.97C196.57 106.02 196.37 106 196.23 105.91L192.23 103.6C192.08 103.52 192.04 103.41 192.14 103.35L194.79 101.82C194.88 101.77 195.08 101.79 195.22 101.87L199.23 104.18C199.37 104.27 199.41 104.38 199.32 104.43L196.66 105.97Z" />
			<path id="Path 4689" class="shp26" d="M190.31 106.52C190.22 106.57 190.02 106.55 189.88 106.47L185.87 104.16C185.73 104.07 185.69 103.96 185.79 103.91L188.44 102.37C188.53 102.32 188.73 102.34 188.87 102.42L192.88 104.73C193.02 104.82 193.06 104.93 192.96 104.99L190.31 106.52Z" />
			<path id="Path 4690" class="shp26" d="M249.91 123.79C249.82 123.85 249.58 123.8 249.39 123.69L244.15 120.66C243.96 120.56 243.88 120.42 243.98 120.37L247.09 118.57C247.19 118.51 247.42 118.56 247.61 118.67L252.86 121.69C253.05 121.8 253.12 121.94 253.03 121.99L249.91 123.79Z" />
			<path id="Path 4691" class="shp26" d="M201.27 91.88C201.19 91.92 201.01 91.89 200.86 91.81L196.86 89.5C196.72 89.42 196.66 89.31 196.74 89.26L197.89 88.6C197.97 88.55 198.16 88.58 198.3 88.67L202.3 90.98C202.45 91.06 202.5 91.17 202.42 91.21L201.27 91.88Z" />
			<path id="Path 4692" class="shp26" d="M206.62 95.04C206.54 95.09 206.36 95.06 206.21 94.98L202.21 92.67C202.07 92.58 202.01 92.48 202.09 92.43L203.24 91.77C203.32 91.72 203.51 91.75 203.65 91.84L207.65 94.14C207.8 94.23 207.85 94.33 207.77 94.38L206.62 95.04Z" />
			<path id="Path 4693" class="shp26" d="M212.29 98.24C212.21 98.29 212.03 98.26 211.89 98.17L207.89 95.86C207.74 95.78 207.69 95.67 207.76 95.63L208.87 94.99C208.95 94.95 209.13 94.98 209.27 95.06L213.28 97.37C213.42 97.45 213.48 97.56 213.4 97.6L212.29 98.24Z" />
			<path id="Path 4694" class="shp26" d="M204.19 96.59C204.11 96.64 203.93 96.61 203.78 96.52L199.78 94.21C199.64 94.13 199.58 94.02 199.66 93.98L200.77 93.34C200.84 93.3 201.03 93.33 201.17 93.41L205.17 95.72C205.32 95.8 205.37 95.91 205.29 95.95L204.19 96.59Z" />
			<path id="Path 4695" class="shp26" d="M242.48 118.59C242.39 118.65 242.19 118.62 242.04 118.54L215.99 103.5C215.85 103.42 215.8 103.3 215.9 103.25L219.01 101.45C219.11 101.4 219.31 101.42 219.45 101.5L245.51 116.54C245.65 116.62 245.69 116.74 245.6 116.79L242.48 118.59Z" />
			<path id="Path 4696" class="shp26" d="M238.22 116.18C238.13 116.24 237.93 116.21 237.78 116.13L211.73 101.09C211.58 101.01 211.54 100.9 211.64 100.84L214.75 99.04C214.85 98.99 215.05 99.01 215.19 99.09L241.25 114.13C241.39 114.21 241.43 114.33 241.34 114.38L238.22 116.18Z" />
			<path id="Path 4697" class="shp26" d="M195.8 109.68C195.71 109.74 195.51 109.72 195.36 109.63L191.36 107.32C191.22 107.24 191.18 107.13 191.27 107.07L193.92 105.54C194.02 105.48 194.22 105.51 194.36 105.59L198.37 107.9C198.51 107.98 198.55 108.1 198.45 108.15L195.8 109.68Z" />
			<path id="Path 4698" class="shp26" d="M201.31 112.87C201.22 112.92 201.02 112.9 200.88 112.81L196.88 110.5C196.73 110.42 196.69 110.31 196.79 110.25L199.44 108.72C199.53 108.67 199.73 108.69 199.88 108.77L203.88 111.08C204.02 111.16 204.06 111.28 203.97 111.33L201.31 112.87Z" />
			<path id="Path 4699" class="shp26" d="M206.83 116.05C206.73 116.1 206.54 116.08 206.39 116L202.39 113.69C202.24 113.6 202.21 113.49 202.3 113.44L204.95 111.9C205.05 111.85 205.25 111.87 205.39 111.95L209.39 114.26C209.54 114.35 209.58 114.46 209.48 114.51L206.83 116.05Z" />
			<path id="Path 4700" class="shp26" d="M212.34 119.23C212.25 119.28 212.05 119.26 211.91 119.18L207.9 116.87C207.76 116.78 207.72 116.67 207.81 116.62L210.47 115.08C210.56 115.03 210.76 115.05 210.9 115.13L214.91 117.45C215.05 117.53 215.09 117.64 214.99 117.7L212.34 119.23Z" />
			<path id="Path 4701" class="shp26" d="M217.85 122.41C217.76 122.47 217.56 122.44 217.42 122.36L213.41 120.05C213.27 119.97 213.23 119.85 213.33 119.8L215.98 118.27C216.08 118.21 216.27 118.23 216.42 118.32L220.42 120.63C220.56 120.71 220.6 120.82 220.51 120.88L217.85 122.41Z" />
			<path id="Path 4702" class="shp26" d="M223.37 125.59C223.27 125.65 223.08 125.62 222.93 125.54L218.93 123.23C218.79 123.15 218.75 123.03 218.84 122.98L221.5 121.45C221.59 121.39 221.79 121.41 221.93 121.5L225.93 123.81C226.08 123.89 226.12 124 226.02 124.06L223.37 125.59Z" />
			<path id="Path 4703" class="shp26" d="M235.79 132.76C235.69 132.81 235.5 132.79 235.35 132.71L224.44 126.41C224.3 126.33 224.26 126.21 224.36 126.16L227.01 124.63C227.1 124.57 227.3 124.59 227.44 124.68L238.35 130.97C238.5 131.06 238.54 131.17 238.44 131.22L235.79 132.76Z" />
			<path id="Path 4704" class="shp26" d="M202.15 109.13C202.05 109.19 201.86 109.16 201.72 109.08L197.71 106.77C197.57 106.69 197.53 106.57 197.63 106.52L200.28 104.98C200.37 104.93 200.57 104.95 200.71 105.04L204.72 107.35C204.86 107.43 204.9 107.54 204.81 107.6L202.15 109.13Z" />
			<path id="Path 4705" class="shp26" d="M207.67 112.31C207.57 112.37 207.38 112.34 207.23 112.26L203.23 109.95C203.08 109.87 203.04 109.76 203.14 109.7L205.79 108.17C205.89 108.11 206.08 108.14 206.23 108.22L210.23 110.53C210.37 110.61 210.41 110.72 210.32 110.78L207.67 112.31Z" />
			<path id="Path 4706" class="shp26" d="M213.18 115.49C213.08 115.55 212.89 115.53 212.75 115.44L208.74 113.13C208.6 113.05 208.56 112.94 208.65 112.88L211.31 111.35C211.4 111.29 211.6 111.32 211.74 111.4L215.74 113.71C215.89 113.79 215.93 113.91 215.83 113.96L213.18 115.49Z" />
			<path id="Path 4707" class="shp26" d="M218.69 118.68C218.6 118.73 218.4 118.71 218.26 118.62L214.26 116.31C214.11 116.23 214.07 116.12 214.17 116.06L216.82 114.53C216.91 114.48 217.11 114.5 217.25 114.58L221.26 116.89C221.4 116.97 221.44 117.09 221.35 117.14L218.69 118.68Z" />
			<path id="Path 4708" class="shp26" d="M224.21 121.86C224.11 121.91 223.92 121.89 223.77 121.81L219.77 119.49C219.62 119.41 219.59 119.3 219.68 119.24L222.34 117.71C222.43 117.66 222.62 117.68 222.77 117.76L226.77 120.07C226.92 120.16 226.96 120.27 226.86 120.32L224.21 121.86Z" />
			<path id="Path 4709" class="shp26" d="M229.72 125.04C229.62 125.09 229.43 125.07 229.29 124.99L225.28 122.68C225.14 122.59 225.1 122.48 225.19 122.42L227.85 120.89C227.94 120.84 228.14 120.86 228.28 120.94L232.29 123.25C232.43 123.34 232.47 123.45 232.37 123.5L229.72 125.04Z" />
			<path id="Path 4710" class="shp26" d="M235.23 128.22C235.14 128.27 234.94 128.25 234.8 128.17L230.8 125.86C230.65 125.77 230.61 125.66 230.71 125.61L233.36 124.07C233.46 124.02 233.65 124.04 233.79 124.12L237.8 126.44C237.94 126.52 237.98 126.63 237.89 126.69L235.23 128.22Z" />
			<path id="Path 4711" class="shp26" d="M204.5 106.27C204.4 106.32 204.21 106.3 204.06 106.22L200.06 103.9C199.92 103.82 199.88 103.71 199.98 103.65L202.63 102.12C202.72 102.07 202.92 102.09 203.06 102.17L207.06 104.48C207.21 104.57 207.25 104.68 207.15 104.73L204.5 106.27Z" />
			<path id="Path 4712" class="shp26" d="M210.01 109.45C209.92 109.5 209.72 109.48 209.58 109.4L205.57 107.09C205.43 107 205.39 106.89 205.49 106.83L208.14 105.3C208.23 105.25 208.43 105.27 208.57 105.35L212.58 107.66C212.72 107.75 212.76 107.86 212.67 107.91L210.01 109.45Z" />
			<path id="Path 4713" class="shp26" d="M215.53 112.63C215.43 112.69 215.24 112.66 215.09 112.58L211.09 110.27C210.94 110.19 210.9 110.07 211 110.02L213.66 108.48C213.75 108.43 213.94 108.45 214.09 108.53L218.09 110.85C218.24 110.93 218.28 111.04 218.18 111.1L215.53 112.63Z" />
			<path id="Path 4714" class="shp26" d="M221.04 115.81C220.94 115.87 220.75 115.84 220.61 115.76L216.6 113.45C216.46 113.37 216.42 113.25 216.51 113.2L219.17 111.67C219.26 111.61 219.46 111.63 219.6 111.72L223.61 114.03C223.75 114.11 223.79 114.22 223.69 114.28L221.04 115.81Z" />
			<path id="Path 4715" class="shp26" d="M226.56 118.99C226.46 119.05 226.26 119.02 226.12 118.94L222.12 116.63C221.97 116.55 221.93 116.43 222.03 116.38L224.68 114.85C224.78 114.79 224.97 114.81 225.12 114.9L229.12 117.21C229.26 117.29 229.3 117.4 229.21 117.46L226.56 118.99Z" />
			<path id="Path 4716" class="shp26" d="M232.07 122.17C231.97 122.23 231.78 122.21 231.63 122.12L227.63 119.81C227.49 119.73 227.45 119.62 227.54 119.56L230.2 118.03C230.29 117.97 230.49 118 230.63 118.08L234.63 120.39C234.78 120.47 234.82 120.59 234.72 120.64L232.07 122.17Z" />
			<path id="Path 4717" class="shp26" d="M237.58 125.35C237.49 125.41 237.29 125.39 237.15 125.3L233.14 122.99C233 122.91 232.96 122.8 233.06 122.74L235.71 121.21C235.8 121.15 236 121.18 236.14 121.26L240.15 123.57C240.29 123.65 240.33 123.77 240.24 123.82L237.58 125.35Z" />
			<path id="Path 4718" class="shp26" d="M193.5 99.92C193.4 99.98 193.21 99.95 193.06 99.87L186.27 95.95C186.13 95.87 186.09 95.75 186.19 95.7L188.84 94.17C188.93 94.11 189.13 94.13 189.27 94.22L196.06 98.14C196.21 98.22 196.25 98.33 196.15 98.39L193.5 99.92Z" />
			<path id="Path 4719" class="shp26" d="M246.75 126.43C246.65 126.48 246.46 126.46 246.31 126.37L239.52 122.46C239.38 122.37 239.34 122.26 239.44 122.21L242.09 120.67C242.19 120.62 242.38 120.64 242.52 120.72L249.31 124.64C249.46 124.72 249.5 124.84 249.4 124.89L246.75 126.43Z" />
			<path id="Path 4720" class="shp26" d="M191.15 102.78C191.05 102.84 190.86 102.82 190.72 102.73L182.62 98.06C182.48 97.98 182.44 97.87 182.53 97.81L185.19 96.28C185.28 96.22 185.48 96.24 185.62 96.33L193.71 101C193.86 101.08 193.9 101.2 193.8 101.25L191.15 102.78Z" />
			<path id="Path 4721" class="shp26" d="M184.8 103.34C184.7 103.39 184.51 103.37 184.36 103.29L178.97 100.17C178.82 100.09 178.78 99.98 178.88 99.92L181.53 98.39C181.63 98.33 181.82 98.36 181.97 98.44L187.36 101.55C187.51 101.64 187.55 101.75 187.45 101.8L184.8 103.34Z" />
			<path id="Path 4722" class="shp26" d="M199.88 99.38C199.78 99.44 199.59 99.42 199.44 99.33L195.44 97.02C195.3 96.94 195.26 96.83 195.35 96.77L198.01 95.24C198.1 95.18 198.3 95.21 198.44 95.29L202.44 97.6C202.59 97.68 202.63 97.79 202.53 97.85L199.88 99.38Z" />
			<path id="Path 4723" class="shp26" d="M205.37 102.55C205.27 102.6 205.08 102.58 204.93 102.5L200.93 100.19C200.79 100.1 200.75 99.99 200.84 99.93L203.49 98.4C203.59 98.35 203.79 98.37 203.93 98.45L207.93 100.76C208.08 100.85 208.12 100.96 208.02 101.02L205.37 102.55Z" />
			<path id="Path 4724" class="shp26" d="M210.88 105.73C210.78 105.78 210.59 105.76 210.45 105.68L206.44 103.37C206.3 103.29 206.26 103.17 206.36 103.12L209.01 101.58C209.1 101.53 209.3 101.55 209.44 101.63L213.45 103.95C213.59 104.03 213.63 104.14 213.53 104.2L210.88 105.73Z" />
			<path id="Path 4725" class="shp26" d="M216.4 108.91C216.3 108.97 216.1 108.94 215.96 108.86L211.96 106.55C211.81 106.47 211.77 106.35 211.87 106.3L214.52 104.77C214.62 104.71 214.81 104.73 214.96 104.82L218.96 107.13C219.1 107.21 219.14 107.32 219.05 107.38L216.4 108.91Z" />
			<path id="Path 4726" class="shp26" d="M221.91 112.09C221.81 112.15 221.62 112.13 221.47 112.04L217.47 109.73C217.33 109.65 217.29 109.54 217.38 109.48L220.03 107.95C220.13 107.89 220.33 107.92 220.47 108L224.47 110.31C224.62 110.39 224.66 110.5 224.56 110.56L221.91 112.09Z" />
			<path id="Path 4727" class="shp26" d="M227.42 115.27C227.33 115.33 227.13 115.31 226.99 115.22L222.98 112.91C222.84 112.83 222.8 112.72 222.9 112.66L225.55 111.13C225.65 111.07 225.84 111.1 225.98 111.18L229.99 113.49C230.13 113.57 230.17 113.68 230.08 113.74L227.42 115.27Z" />
			<path id="Path 4728" class="shp26" d="M232.94 118.45C232.84 118.51 232.65 118.49 232.5 118.4L228.5 116.09C228.35 116.01 228.31 115.9 228.41 115.84L231.06 114.31C231.16 114.25 231.35 114.28 231.5 114.36L235.5 116.67C235.65 116.75 235.69 116.87 235.59 116.92L232.94 118.45Z" />
			<path id="Path 4729" class="shp26" d="M238.45 121.64C238.35 121.69 238.16 121.67 238.02 121.59L234.01 119.27C233.87 119.19 233.83 119.08 233.92 119.02L236.58 117.49C236.67 117.44 236.87 117.46 237.01 117.54L241.02 119.85C241.16 119.94 241.2 120.05 241.1 120.1L238.45 121.64Z" />
			<path id="Path 4730" class="shp26" d="M241.66 124.44C241.59 124.4 241.51 124.37 241.42 124.36C241.34 124.35 241.27 124.37 241.22 124.39L238.57 125.92C238.53 125.95 238.51 125.99 238.52 126.04C238.54 126.09 238.59 126.14 238.66 126.17L239.7 126.78L236.22 128.79C236.18 128.81 236.16 128.86 236.18 128.9C236.19 128.95 236.24 129 236.31 129.04L239.01 130.6C239.08 130.64 239.16 130.66 239.24 130.67C239.33 130.68 239.4 130.67 239.44 130.65L245.75 127C245.8 126.98 245.81 126.94 245.8 126.89C245.78 126.84 245.73 126.79 245.66 126.75L241.66 124.44Z" />
		</g>
		<path id="Path 4731" class="shp18" d="M239.21 128.14C239.22 128.17 239.56 128.77 240.27 128.88L240.29 128.88C241.56 129.06 243.13 127.55 244.94 124.39C245.03 124.3 245.42 124.03 245.96 123.66C245.44 124.78 246.04 123.99 244.5 126.2C242.03 129.75 242.08 130.77 242.13 130.86C242.13 130.86 243.1 131.77 244.54 130.88C247.29 129.17 248.17 126.46 248.78 125.51C248.5 126.2 248.15 126.76 247.82 127.31C246.55 129.41 245.16 132.14 245.16 132.14C245.89 132.59 246.41 132.51 246.79 132.06C246.41 132.72 246.68 133.03 247.65 132.96C249.54 132.25 249.89 130.26 252.15 128.45C254.16 126.84 253.68 127.05 253.86 126.9C255.52 125.59 256.89 124.86 257.64 124.71C257.83 124.67 259.23 123.98 259.45 123.91C263.47 122.44 260.95 116.55 256.39 115.41C252.04 117.34 245.18 118.94 243.63 121.4L243.59 121.42L239.11 127.96L239.21 128.14Z" />
		<path id="Path 4732" class="shp26" d="M120.1 82.37L93.16 98.02L112.21 108.95L139.15 93.29L120.1 82.37Z" />
		<g id="Group 4322">
			<path id="Path 4733" class="shp20" d="M119.97 80.7L93.03 96.36L112.08 107.28L139.02 91.62L119.97 80.7Z" />
			<path id="Path 4734" class="shp26" d="M133.79 91.98L118.8 83.38L120.12 82.6L135.12 91.21L133.79 91.98Z" />
			<path id="Path 4735" class="shp26" d="M119.24 91.78L111.74 87.48L113.07 86.71L120.57 91.01L119.24 91.78Z" />
			<path id="Path 4736" class="shp26" d="M115.73 93.82L108.23 89.52L109.56 88.75L117.06 93.05L115.73 93.82Z" />
			<path id="Path 4737" class="shp26" d="M111.7 96.16L104.2 91.86L105.53 91.09L113.03 95.39L111.7 96.16Z" />
			<path id="Path 4738" class="shp26" d="M112.93 105.68L104.74 100.98L105.87 100.32L114.07 105.02L112.93 105.68Z" />
			<path id="Path 4739" class="shp26" d="M133.35 94.66L114.85 84.04L115.63 83.59L134.14 94.2L133.35 94.66Z" />
			<path id="Path 4740" class="shp26" d="M116.68 104.35L98.18 93.73L98.96 93.28L117.47 103.89L116.68 104.35Z" />
		</g>
		<g id="Group 4325">
			<path id="Ellipse 6347" class="shp28" d="M246.22 182.31C240.4 182.31 235.69 180.15 235.69 177.48C235.69 174.81 240.4 172.65 246.22 172.65C252.04 172.65 256.75 174.81 256.75 177.48C256.75 180.15 252.04 182.31 246.22 182.31Z" />
			<g id="Group 4323">
				<path id="Ellipse 6348" class="shp29" d="M249.45 176.9C249.43 179.61 245.64 181.77 240.96 181.74C236.28 181.72 232.51 179.51 232.52 176.81C232.54 174.11 236.33 171.95 241.01 171.97C245.69 172 249.46 174.2 249.45 176.9Z" />
				<path id="Path 4741" class="shp29" d="M228.57 164.99L232.55 177.2L249.39 177.48L253.23 165.71L228.57 164.99Z" />
				<path id="Path 4742" class="shp30" d="M248 165.48L244.16 177.2L244.16 177.2C243.62 178.99 243.14 179.39 241.76 180.19C240.76 180.77 239.57 181.26 238.31 181.48C241.15 181.96 244.32 181.42 246.54 180.14C247.92 179.34 248.72 178.93 248.94 177.2L248.94 177.2L252.78 165.48L248 165.48Z" />
				<path id="Ellipse 6349" class="shp20" d="M253.49 164.28C253.46 168.28 247.86 171.47 240.95 171.43C234.03 171.4 228.46 168.14 228.48 164.15C228.5 160.16 234.11 156.96 241.02 157C247.94 157.04 253.51 160.29 253.49 164.28Z" />
				<path id="Ellipse 6350" class="shp31" d="M251.63 164.04C251.61 167.47 246.8 170.21 240.86 170.18C234.93 170.15 230.15 167.35 230.17 163.92C230.19 160.5 235 157.76 240.93 157.79C246.87 157.82 251.65 160.62 251.63 164.04Z" />
			</g>
			<g id="Group 4324">
				<path id="Path 4743" class="shp5" d="M241.33 160.33C242.4 150.65 250.63 134.74 250.63 134.74C240.02 137.89 239.32 148.38 239.32 148.38L241.33 160.33Z" />
				<path id="Path 4744" class="shp5" d="M238.93 151.78C240.05 142.11 235.37 124.8 235.37 124.8C245.02 130.23 243.36 140.61 243.36 140.61L238.93 151.78Z" />
				<path id="Path 4745" class="shp5" d="M255.19 140.11C246.33 142.1 240.98 157.61 240.98 157.61L240.98 157.64C240.65 137.88 228.18 132.65 228.18 132.65C231.9 138.07 235.41 156.54 236.47 162.51C236.87 164.75 238.86 166.4 241.13 166.29C241.26 166.28 241.39 166.27 241.51 166.26C243.46 166.04 245 164.52 245.38 162.6C247.01 154.33 255.19 140.11 255.19 140.11Z" />
			</g>
		</g>
		<path id="Path 4746" class="shp28" d="M140.14 128.26L202.54 163.76L222.04 152.27L161.54 116.05L140.14 128.26Z" />
		<g id="Group 4329">
			<g id="Group 4326">
				<path id="Path 4747" class="shp32" d="M174.95 147.79L160.27 140.01C159.09 139.39 159.05 138.22 160.19 137.46L179.43 124.4C180.5 123.68 182.22 123.58 183.33 124.16L196.53 131.16C197.65 131.75 197.75 132.84 196.76 133.61L178.99 147.44C177.95 148.25 176.12 148.41 174.95 147.79Z" />
				<path id="Path 4748" class="shp33" d="M174.82 145.71L160.14 137.93C158.96 137.31 158.93 136.14 160.06 135.38L179.31 122.33C180.37 121.6 182.09 121.5 183.2 122.08L196.4 129.08C197.52 129.67 197.62 130.76 196.63 131.53L178.86 145.36C177.82 146.17 175.99 146.33 174.82 145.71Z" />
			</g>
			<g id="Group 4327">
				<path id="Path 4749" class="shp20" d="M210.47 107.88L139.97 67.5C139.45 67.2 138.23 66.9 137.24 67.3L134.56 68.96L148.01 113.55C148.1 114.07 148.45 114.72 149.01 115.04C149.01 115.04 217.96 150 217.87 149.49L210.47 107.88Z" />
				<path id="Path 4750" class="shp10" d="M191.29 123.38C198.48 118.13 205.16 139.76 212.2 150.85C213.17 152.36 213.94 154.02 213.94 154.02L217.82 150.89C218.19 150.58 218.12 149.89 217.88 149.02L211 109.01L210.97 108.81C210.69 107.56 209.49 107.25 208.94 107.02L191.29 123.38Z" />
				<path id="Path 4751" class="shp34" d="M134.36 69.33C134.28 68.87 134.65 68.75 135.18 69.05L205.36 109.01C205.57 109.13 205.78 109.3 205.95 109.48C206.31 109.82 206.6 110.24 206.65 110.57L214.11 153.61C214.19 154.09 213.78 154.22 213.21 153.89L143.35 114.31C142.77 113.98 142.23 113.32 142.15 112.84L141.65 109.93L141.65 109.93L134.36 69.33Z" />
			</g>
			<g id="Group 4328">
				<path id="Path 4752" class="shp33" d="M189.62 110.05L157.39 91.59C157.15 91.45 156.94 91.48 156.49 91.66L154.92 92.26L161.07 112.65C161.11 112.88 161.27 113.18 161.53 113.33C161.53 113.33 193.05 129.32 193.01 129.08L189.62 110.05Z" />
				<path id="Path 4753" class="shp33" d="M178.49 114.03C181.77 111.63 187.2 124.63 190.42 129.7C190.86 130.39 191.21 131.15 191.21 131.15L192.97 130.25C193.13 130.11 193.12 129.48 193.01 129.08L189.87 110.57L189.85 110.48C189.83 110.36 189.72 110.18 189.62 110.05L178.49 114.03Z" />
				<path id="Path 4754" class="shp35" d="M190.88 131.09L158.94 112.99C158.67 112.84 158.43 112.54 158.39 112.32L154.98 92.65C154.94 92.43 155.13 92.37 155.39 92.52L187.33 110.62C187.6 110.77 187.84 111.07 187.88 111.29L191.29 130.97C191.33 131.19 191.14 131.24 190.88 131.09Z" />
				<path id="Path 4755" class="shp35" d="M190.43 128.38L158.34 110.12C158.09 109.98 158.19 111.2 158.16 110.99L154.83 92.43C154.79 92.22 154.96 92.17 155.2 92.3L187.29 110.57C187.53 110.71 187.76 110.99 187.8 111.2L190.8 128.26C190.84 128.47 190.67 128.52 190.43 128.38Z" />
			</g>
			<path id="Path 4756" class="shp36" d="M159.85 119.89C159.88 119.49 159.97 119.12 160.1 118.77L160.69 112.55C160.96 109.62 163.97 107.98 166.58 109.35L179.91 116.31C181.65 117.22 182.68 119.17 182.44 121.12L180.28 138.51C180.27 138.62 180.25 138.72 180.23 138.82L179.46 145.02C179.19 147.35 176.76 148.69 174.73 147.63L160.36 140.13C158.98 139.41 158.16 137.88 158.31 136.3L159.85 119.89Z" />
		</g>
		<path id="Ellipse 6351" class="shp0" d="M86.66 235.85C74.11 235.85 63.96 229.86 63.96 222.44C63.96 215.03 74.11 209.04 86.66 209.04C99.21 209.04 109.35 215.03 109.35 222.44C109.35 229.86 99.21 235.85 86.66 235.85Z" />
		<path id="Path 4757" class="shp37" d="M19.68 47.94C7.3 57.41 19.62 74.68 19.02 91.02L37.11 79.77L33.03 49.22L24.99 46.97C23.16 46.45 21.18 46.79 19.68 47.94Z" />
		<path id="Path 4758" class="shp0" d="M4.42 203.01L53.52 174.03L104.22 204.04L53.56 231.98L4.42 203.01Z" />
		<path id="Path 4759" class="shp1" d="M6.12 202.75L6.12 202.75C4.84 202.56 3.96 201.38 4.15 200.1L11.52 150.44C11.71 149.16 12.89 148.29 14.17 148.47L14.17 148.47C15.44 148.66 16.32 149.85 16.13 151.12L8.76 200.79C8.57 202.06 7.39 202.94 6.12 202.75Z" />
		<path id="Path 4760" class="shp3" d="M59.52 133.15L89.78 158.42C94.73 161.72 98.51 158.67 98.57 153.23L99.27 144.38C99.33 138.93 95.33 131.78 90.38 128.49L59.81 108.13C54.85 104.83 50.75 106.59 50.69 112.03L50.63 117.26C50.57 122.71 54.57 129.86 59.52 133.15Z" />
		<path id="Path 4761" class="shp1" d="M56.23 234.42L56.23 234.42C57.49 234.23 58.36 233.05 58.17 231.79L48.48 166.46C48.29 165.2 47.12 164.33 45.86 164.52L45.86 164.52C44.6 164.7 43.73 165.88 43.92 167.14L53.6 232.47C53.79 233.73 54.97 234.6 56.23 234.42Z" />
		<path id="Path 4762" class="shp3" d="M49.09 180.84L93.73 155.07C97.86 152.68 96.19 147.44 90.01 143.43L73.96 133.01C67.78 128.99 59.33 127.66 55.2 130.05L10.56 155.82C6.42 158.21 8.09 163.45 14.28 167.46L30.32 177.88C36.51 181.9 44.95 183.23 49.09 180.84Z" />
		<path id="Path 4763" class="shp3" d="M51.49 187.1L90.95 164.32C95.2 161.87 97.54 156.99 97.54 156.99C99.13 153.34 95.34 150.7 91.1 153.15L49.6 177.58C45.36 180.03 43.76 182.59 44.45 185.63C44.45 185.63 46.11 189.88 51.49 187.1Z" />
		<path id="Path 4764" class="shp34" d="M64.26 179.61C64.26 179.61 83.92 171.59 90.35 160.77L67.57 152.36C61.54 162.05 63.02 172.63 64.26 179.61Z" />
		<g id="Group 4331">
			<path id="Path 4765" class="shp38" d="M86.69 219.03L87.42 218.68C87.84 218.48 88 218 87.78 217.61L87.78 217.61C87.56 217.23 87.04 217.08 86.63 217.28L85.89 217.63C85.48 217.83 85.31 218.31 85.53 218.7L85.53 218.7C85.75 219.08 86.27 219.24 86.69 219.03Z" />
			<path id="Rectangle 330" class="shp39" d="M87.89 214.43L87.89 217.89C87.89 218.36 87.5 218.74 87.03 218.74L87.03 218.74C86.56 218.74 86.17 218.36 86.17 217.89L86.17 214.43C86.17 213.96 86.56 213.57 87.03 213.57L87.03 213.57C87.5 213.57 87.89 213.96 87.89 214.43Z" />
			<g id="Group 4330">
				<path id="Path 4766" class="shp39" d="M83.61 208.35C84.48 212.41 85.44 218.46 85.44 218.46L87.03 218.74L86.78 214.51C86.97 213.88 88.14 214.57 88.64 215.24C91.57 219.19 89.69 221.67 92.57 223.48C92.57 223.48 99.25 226.29 105.98 225.14C105.98 225.14 109.14 224.05 107.78 222.26C105.1 218.75 95.19 208.99 93.26 206.69L92.73 206.54L89.19 201.29C87.85 200.93 85.35 202.77 84.4 204.46C83.61 205.25 83.25 206.66 83.61 208.35Z" />
				<path id="Path 4767" class="shp18" d="M90.1 200.84L93.08 203.12C93.08 203.12 100.55 213.92 101.96 216.08C103.6 218.59 93.78 222.91 87.03 208.16C82.11 200.37 90.1 200.84 90.1 200.84Z" />
			</g>
		</g>
		<path id="Path 4768" class="shp40" d="M36.25 150.38C54.87 155.86 62.96 162.78 68.28 167.81C71.96 171.28 74.33 175.76 75.03 180.58C76.38 189.92 78.4 205.16 78.4 212.68" />
		<g id="Group 4332">
			<path id="Path 4769" class="shp18" d="M48.22 151.04C53.98 152.76 59.24 154.71 64.51 157.51C66.51 158.57 68.46 159.73 70.33 160.99C70.7 161.24 71.47 161.79 70.66 161.21C71.02 161.46 71.37 161.72 71.72 161.99C72.49 162.57 73.23 163.16 73.97 163.77C77.06 166.35 79.99 169 81.54 172.43C82.63 174.87 82.84 176.89 83.17 179.4C83.55 182.24 83.89 185.09 84.19 187.95C84.81 193.91 84.8 197.11 85.43 203.14C86.14 210.04 97.04 217.64 97.02 210.69C97 205.04 96.52 194.58 95.95 188.96C95.64 185.87 95.28 182.79 94.88 179.71C94.47 176.61 94.2 173.44 93.12 170.46C89.75 161.18 80.91 154.15 72.11 149.15C65.65 145.47 58.52 142.8 51.32 140.66C48.32 139.76 44.95 141.7 44.14 144.42C43.28 147.33 45.21 150.15 48.22 151.04L48.22 151.04Z" />
		</g>
		<g id="Group 4334">
			<path id="Path 4770" class="shp39" d="M74.06 225.32L74.79 224.96C75.21 224.76 75.37 224.28 75.15 223.9L75.15 223.9C74.93 223.51 74.41 223.36 73.99 223.56L73.26 223.92C72.84 224.12 72.68 224.6 72.9 224.98L72.9 224.98C73.12 225.37 73.64 225.52 74.06 225.32Z" />
			<path id="Rectangle 331" class="shp39" d="M75.25 220.71L75.25 224.17C75.25 224.64 74.87 225.03 74.4 225.03L74.4 225.03C73.92 225.03 73.54 224.64 73.54 224.17L73.54 220.71C73.54 220.24 73.92 219.86 74.4 219.86L74.4 219.86C74.87 219.86 75.25 220.24 75.25 220.71Z" />
			<g id="Group 4333">
				<path id="Path 4771" class="shp39" d="M70.98 214.63C71.85 218.7 72.8 224.74 72.8 224.74L74.4 225.03L74.15 220.8C74.34 220.17 75.51 220.85 76 221.52C78.94 225.47 77.06 227.95 79.94 229.77C79.94 229.77 86.62 232.57 93.35 231.42C93.35 231.42 96.51 230.33 95.15 228.55C92.46 225.04 82.56 215.28 80.63 212.98L80.1 212.82L76.56 207.57C75.22 207.22 72.72 209.05 71.77 210.75C70.98 211.54 70.62 212.94 70.98 214.63Z" />
				<path id="Path 4772" class="shp18" d="M77.47 207.12L80.45 209.4C80.45 209.4 87.92 220.21 89.33 222.37C90.97 224.87 81.15 229.19 74.4 214.44C69.48 206.65 77.47 207.12 77.47 207.12Z" />
			</g>
		</g>
		<g id="Group 4336">
			<g id="Group 4335">
				<path id="Path 4773" class="shp41" d="M64.19 121.57C59.06 115.85 55.92 109.69 52.83 104.13C49.35 97.86 45.06 87.86 43.14 81.22C42.38 78.61 47.63 78.86 50.48 78.85C52.94 78.84 56.75 82.43 57.51 85.05C60.92 96.88 65.72 102.49 71.1 113.79C72.3 116.3 64.19 121.57 64.19 121.57Z" />
			</g>
		</g>
		<path id="Path 4774" class="shp34" d="M19.09 110.44C18.14 109.94 17.82 108.46 17.82 108.46C16.84 103.04 13.08 98.48 19.02 91.02C19.43 90.5 21.25 89.14 23.22 87.88C27.86 84.93 36.04 81 42.09 79.5C46.77 78.34 51.62 80.68 53.82 84.97C55.1 87.48 56.51 92.52 56.51 92.52C57.61 102.52 52.33 89.63 51.98 95.22C51.99 95.08 52.02 94.94 52.03 94.81C52.03 94.81 51.42 104.24 50.97 111.54C50.69 116.09 50.49 119.39 50.49 119.85C50.49 119.87 50.48 119.9 50.49 119.9L34.4 134.34L24.46 118.82L24.46 118.82L19.09 110.44Z" />
		<path id="Path 4775" class="shp10" d="M26.6 151.46C28.73 167.03 38.84 167.97 48.57 161.49C58.3 155.01 62.94 150.54 60.85 133.48C60.85 133.48 52.75 115.18 45.87 119.25C35.81 125.2 24.13 133.37 26.6 151.46Z" />
		<path id="Path 4776" class="shp34" d="M53.37 88.11C53.37 88.11 60.73 98.19 60.37 104.58C60.14 108.65 57.52 113.37 57.18 114.69C54.38 125.49 56.83 123.96 56.64 126.91C56.64 126.91 54.64 141.72 29.21 133.8L16.82 103.84L53.37 88.11Z" />
		<path id="Path 4777" class="shp10" d="M59.99 132.57C59.99 132.57 74.69 148.59 90.35 160.77C90.35 160.77 66.96 151.68 64.26 179.61L30.15 157.91L59.99 132.57Z" />
		<path id="Path 4778" class="shp18" d="M41.48 79.4C41.48 79.4 50.5 87.6 43.56 94.27C36.61 100.93 23.22 87.88 23.22 87.88C29.52 83.35 35.65 80.16 41.48 79.4Z" />
		<path id="Path 4779" class="shp18" d="M39.91 82.55L42.25 67.21L32.2 70.74L29.87 84.27C29 87.86 37.79 90.43 39.91 82.55Z" />
		<path id="Path 4780" class="shp19" d="M40.28 80.96C39.03 81.02 35.99 80.2 34.78 79.36C34.78 79.36 36.88 82.53 39.66 83.29L40.28 80.96Z" />
		<path id="Path 4781" class="shp42" d="M31.72 57.02C31.72 57.02 54.77 51.04 51.26 68.51C51.26 68.51 57 61.79 50.8 53.08C45.83 46.09 42.21 45.98 42.21 45.98L36.83 50.38L31.72 57.02Z" />
		<path id="Path 4782" class="shp41" d="M29.42 113.09L30.87 133.38L38.6 135.38L29.42 113.09Z" />
		<path id="Path 4783" class="shp43" d="M56.46 150.22C56.47 150.23 56.92 150.51 57.43 150.31L57.44 150.31C58.36 149.95 58.83 148.36 58.86 145.59C58.89 145.5 59.04 145.18 59.27 144.73C59.34 145.67 59.44 144.92 59.24 146.96C58.92 150.24 59.34 150.9 59.41 150.94C59.41 150.94 60.39 151.17 61.01 150.05C62.21 147.89 61.77 145.77 61.83 144.91C61.9 145.47 61.88 145.97 61.86 146.46C61.8 148.32 61.9 150.66 61.9 150.66C62.55 150.68 62.86 150.43 62.94 149.99C62.94 150.57 63.24 150.68 63.85 150.27C64.84 149.1 64.34 147.64 65.16 145.6C65.89 143.79 65.65 144.1 65.72 143.93C66.33 142.45 66.97 141.45 67.41 141.07C67.52 140.98 68.19 140 68.31 139.87C70.43 137.4 66.57 134.43 63.11 135.37C60.95 138.27 56.99 141.89 56.87 144.1L56.86 144.13L56.32 150.13L56.46 150.22Z" />
		<path id="Path 4784" class="shp18" d="M68.89 138.66C68.9 138.68 69.02 139.15 68.62 139.58L68.61 139.59C67.88 140.33 66.02 140.39 63.08 139.76C62.97 139.76 62.57 139.83 62.01 139.93C62.98 140.21 63.99 140.84 64.55 141.57C66.75 144.44 67.18 146.18 67.19 146.25L67.22 146.35L67.16 146.43C67.14 146.46 66.93 146.74 66.49 146.72C65.61 146.7 64.5 145.58 63.16 143.42C62.8 142.83 62.15 142.46 61.22 142.31C61.79 142.51 62.27 142.84 62.58 143.27C63.57 144.61 65.01 147.83 65.07 147.97L65.13 148.1L65.04 148.21C65.02 148.23 64.81 148.47 64.39 148.43C64.25 148.42 64.09 148.38 63.94 148.3L63.98 148.37L64.11 148.56L63.92 148.68C62.5 149.6 61.44 148.1 60.68 147.01C60.58 146.87 60.48 146.73 60.38 146.6C60.02 146.1 59.36 145.54 58.7 145.63C56.91 145.87 55.6 146.18 55.03 146.5C54.89 146.57 53.59 146.96 53.41 147.03C49.98 148.39 48.32 144.15 50.63 141.21C54.53 139.92 59.87 137.17 62.25 137.59L62.29 137.58L68.86 138.52L68.89 138.66Z" />
		<path id="Path 4785" class="shp34" d="M52.75 140.44L34.88 134.75C34.01 133.54 33.39 133.35 33.13 132.1C32.06 127.11 28.53 107.86 26.33 97.9C25.76 95.33 23.41 93.46 20.79 93.68C17.74 93.93 15.58 96.71 16.06 99.7L22.92 133.77C23.75 137.87 26.78 141.17 30.79 142.34C36.71 144.45 43.08 146.35 51.7 147.25C52.77 141.01 52.69 140.44 52.75 140.44Z" />
		<path id="Path 4786" class="shp41" d="M62.15 117.81L62.52 135.7L68.66 137.36C68.66 137.36 73.16 121.34 72.25 116.75C70.37 107.15 62.15 117.81 62.15 117.81Z" />
		<path id="Path 4787" class="shp41" d="M30.45 116.97C30.45 116.97 36.2 121.11 43.19 119.06C43.19 119.06 36.33 124.55 31.36 120.11L30.45 116.97Z" />
		<path id="Path 4788" class="shp41" d="M58.23 111.78C58.23 111.78 55.74 114.86 50.71 114.87C50.71 114.87 53.75 116.72 57.69 114.26L58.23 111.78Z" />
		<path id="Path 4789" class="shp2" d="M11.3 167.34L42.75 186.6C47.85 189.72 51.79 188.25 51.5 183.34L51.23 178.63C50.95 173.72 46.55 167.15 41.46 164.03L10 144.77C4.91 141.65 0.97 143.12 1.25 148.02L1.52 152.74C1.8 157.65 6.2 164.22 11.3 167.34Z" />
		<g id="Group 4356">
			<path id="Path 4790" class="shp44" d="M324.62 149.82L300.41 135.06L261.34 155.54L261.43 155.59L259.93 156.37L286.32 172.6C286.8 172.89 287.41 172.91 287.9 172.63L323.14 153.4C323.28 153.32 323.4 153.24 323.5 153.14L324.55 152.56C325.62 151.98 325.66 150.45 324.62 149.82Z" />
			<path id="Path 4791" class="shp5" d="M284.75 171.76L258.36 155.54L297.43 135.06L321.64 149.82C322.68 150.45 322.64 151.98 321.57 152.56L286.33 171.8C285.83 172.07 285.23 172.06 284.75 171.76Z" />
			<path id="Path 4792" class="shp45" d="M260.28 154.65L258.36 155.54C257.5 153.53 258.08 150.62 258.08 150.62C258.33 149.69 259.29 149.13 260.22 149.38L261.15 149.62C262.08 149.87 262.64 150.83 262.4 151.76L262.03 153.14C261.79 154.07 261.21 154.9 260.28 154.65Z" />
			<path id="Path 4793" class="shp20" d="M284.21 169.6L260.52 155.15C259.75 154.68 259.77 153.55 260.57 153.12L297.24 133.1L320.42 147.24C321.92 148.15 321.87 150.34 320.33 151.18L286.49 169.65C285.78 170.04 284.91 170.02 284.21 169.6Z" />
			<path id="Path 4794" class="shp20" d="M284.21 169.6L261.2 155.57C260.13 154.91 260.17 153.34 261.27 152.74L297.24 133.1L320.42 147.24C321.92 148.15 321.87 150.34 320.33 151.18L286.49 169.65C285.78 170.04 284.91 170.02 284.21 169.6Z" />
			<path id="Path 4795" class="shp45" d="M259.15 151.19L258.83 150.99C258.12 150.56 258.23 149.83 259.07 149.38L294.48 130.05C295.31 129.59 296.58 129.57 297.28 130L297.61 130.2C298.31 130.63 298.21 131.35 297.37 131.81L261.96 151.14C261.12 151.6 259.86 151.62 259.15 151.19Z" />
			<path id="Path 4796" class="shp5" d="M285.12 167.02L259.35 151.31L297.81 130.32L322.01 145.08C323.05 145.71 323.02 147.24 321.95 147.82L286.71 167.06C286.21 167.33 285.6 167.32 285.12 167.02Z" />
			<g id="Group 4355">
				<path id="Path 4797" class="shp46" d="M296.93 128.28L319.1 142.98C320.72 144.06 321.25 145.26 320.33 145.8L288.79 164.5C287.64 165.18 284.77 164.57 282.74 163.23L260.58 148.52C258.95 147.44 258.43 146.25 259.34 145.71L290.89 127C292.03 126.33 294.9 126.93 296.93 128.28Z" />
				<g id="Group 4354">
					<path id="Path 4798" class="shp31" d="M315.67 144.98L292.89 129.94C292.45 129.65 291.42 129.61 290.99 129.87L263.38 146.07C263.17 146.2 263.17 146.37 263.39 146.52L286.17 161.56C286.61 161.85 287.64 161.89 288.07 161.64L315.68 145.43C315.89 145.3 315.89 145.13 315.67 144.98Z" />
					<g id="Group 4353">
						<path id="Path 4799" class="shp47" d="M290.71 145.42L290.04 144.99C289.54 144.67 288.7 144.68 288.16 145.01L288.04 145.09L290.37 146.58L290.65 146.41C291.1 146.13 291.13 145.69 290.71 145.42Z" />
						<path id="Path 4800" class="shp47" d="M292.8 144.14L292.13 143.71C291.63 143.39 290.79 143.4 290.25 143.73L290.13 143.81L292.46 145.3L292.74 145.13C293.19 144.85 293.22 144.41 292.8 144.14Z" />
						<path id="Path 4801" class="shp47" d="M288.63 146.7L287.95 146.27C287.46 145.95 286.62 145.96 286.08 146.29L285.95 146.37L288.28 147.86L288.56 147.69C289.01 147.41 289.04 146.97 288.63 146.7Z" />
						<path id="Path 4802" class="shp47" d="M286.54 147.99L285.86 147.55C285.37 147.23 284.53 147.24 283.99 147.58L283.87 147.65L286.19 149.14L286.47 148.97C286.92 148.69 286.95 148.25 286.54 147.99Z" />
						<path id="Path 4803" class="shp47" d="M284.45 149.27L283.77 148.83C283.28 148.52 282.44 148.53 281.9 148.86L281.78 148.93L284.1 150.42L284.38 150.25C284.83 149.97 284.86 149.53 284.45 149.27Z" />
						<path id="Path 4804" class="shp47" d="M282.58 150.44L281.91 150.01C281.4 149.68 280.54 149.69 279.98 150.03L278.92 150.69L281.24 152.18L282.52 151.39C282.95 151.13 282.98 150.7 282.58 150.44Z" />
						<path id="Path 4805" class="shp47" d="M295.22 142.77L294.4 142.25C293.79 141.86 292.77 141.87 292.12 142.27L291.97 142.37L294.8 144.18L295.14 143.97C295.69 143.63 295.72 143.1 295.22 142.77Z" />
						<path id="Path 4806" class="shp47" d="M297.52 141.44L296.6 140.85C295.93 140.42 294.79 140.43 294.06 140.88L293.9 140.98L297.05 143L297.43 142.77C298.04 142.39 298.08 141.8 297.52 141.44Z" />
						<path id="Path 4807" class="shp47" d="M299.84 140.01L298.93 139.42C298.26 138.99 297.12 139 296.39 139.45L296.23 139.55L299.38 141.57L299.75 141.34C300.37 140.97 300.41 140.37 299.84 140.01Z" />
						<path id="Path 4808" class="shp47" d="M302.27 138.66L301.17 137.95C300.36 137.43 298.98 137.45 298.1 137.99L297.9 138.11L301.71 140.56L302.16 140.28C302.9 139.82 302.95 139.1 302.27 138.66Z" />
						<path id="Path 4809" class="shp47" d="M281.42 154.04C281.89 154.18 282.71 154.51 283.02 154.73C284.91 156.07 284.71 157.09 286.24 158.13C286.51 158.32 286.94 158.49 287.54 158.36C288.07 158.25 288.49 157.95 288.59 157.7C288.69 157.45 288.55 157.24 288.38 157.05L288.38 157.05C287.62 156.2 286.29 155.58 285.05 154.94C284.44 154.63 283.78 154.32 283.34 153.93C283.09 153.7 283.02 153.24 282.47 153.15C282.19 153.11 281.84 153.2 281.56 153.35C281.04 153.62 281.07 153.93 281.42 154.04Z" />
						<path id="Path 4810" class="shp47" d="M276.02 150.57C275.81 150.27 275.3 149.75 274.96 149.55C272.86 148.34 271.23 148.44 269.61 147.46C269.32 147.28 269.06 147.01 269.27 146.63C269.46 146.31 269.95 146.05 270.35 145.99C270.76 145.93 271.08 146.02 271.38 146.14L271.38 146.14C272.72 146.63 273.67 147.48 274.66 148.27C275.15 148.66 275.63 149.09 276.24 149.37C276.6 149.53 277.33 149.59 277.46 149.94C277.52 150.11 277.37 150.33 277.12 150.5C276.67 150.82 276.18 150.79 276.02 150.57Z" />
						<g id="Group 4337">
							<path id="Path 4811" class="shp47" d="M287.61 154.28C290.72 154.47 293.18 154.12 295.58 152.89C297.71 151.79 299.45 150.57 301.08 148.98C301.83 148.24 302.36 147.4 302.69 146.53C302.98 145.75 302.69 144.75 300.86 144.54C300.14 144.46 299.4 144.85 298.8 145.05C297.24 145.55 296.02 145.93 294.17 145.88C293.83 145.87 293.81 145.53 294.16 145.54C296.38 145.6 297.59 144.9 299.48 144.43C300.29 144.23 301.37 144.03 302.27 144.33C304.35 145.02 303.18 146.86 302.65 147.76C301.39 149.89 299.17 151.97 296.4 153.41C293.89 154.71 290.91 154.82 287.63 154.62C287.28 154.59 287.26 154.25 287.61 154.28L287.61 154.28Z" />
						</g>
						<g id="Group 4338">
							<path id="Path 4812" class="shp47" d="M286.63 150.9C288.84 151.76 289.81 152.8 290.59 154.3C290.7 154.52 289.67 154.72 289.61 154.51C289.2 153.17 288.48 152.01 286.37 151.19C286.07 151.07 286.32 150.79 286.63 150.9L286.63 150.9Z" />
						</g>
						<g id="Group 4339">
							<path id="Path 4813" class="shp47" d="M288.47 149.77C290.97 150.76 292.77 152.18 293.73 153.91C293.85 154.12 292.66 154.38 292.61 154.16C292.31 152.88 290.59 151 288.22 150.06C287.91 149.94 288.16 149.65 288.47 149.77L288.47 149.77Z" />
						</g>
						<g id="Group 4340">
							<path id="Path 4814" class="shp47" d="M290.24 148.91C292.96 149.73 295.39 151.07 296.74 152.78C296.9 152.98 296.17 153.36 296.01 153.15C294.7 151.49 292.63 149.99 289.99 149.2C289.66 149.1 289.92 148.82 290.24 148.91L290.24 148.91Z" />
						</g>
						<g id="Group 4341">
							<path id="Path 4815" class="shp47" d="M291.39 147.54C294.3 148.39 297.48 149.77 298.46 151.79C298.56 152 297.69 152.44 297.59 152.22C296.65 150.3 293.9 148.64 291.13 147.83C290.81 147.73 291.06 147.44 291.39 147.54L291.39 147.54Z" />
						</g>
						<g id="Group 4342">
							<path id="Path 4816" class="shp47" d="M292.77 146.44C295.82 146.98 298.79 148.29 300.69 149.93C300.9 150.11 300 150.65 299.79 150.46C297.98 148.9 295.55 147.27 292.65 146.76C292.31 146.7 292.43 146.38 292.77 146.44L292.77 146.44Z" />
						</g>
						<g id="Group 4343">
							<path id="Path 4817" class="shp47" d="M294.23 145.55C297.11 146.04 299.92 146.89 301.75 148.45C301.97 148.63 301.35 149.21 301.14 149.03C299.4 147.55 296.83 146.33 294.11 145.87C293.76 145.81 293.89 145.49 294.23 145.55L294.23 145.55Z" />
						</g>
						<g id="Group 4344">
							<path id="Path 4818" class="shp47" d="M297.43 145.14C298.44 145.23 299.49 145.32 300.44 145.6C301.44 145.91 302.2 146.43 302.92 146.96C303.15 147.13 302.69 147.65 302.46 147.48C301.83 147.02 301.23 146.37 300.37 146.08C299.46 145.77 298.43 145.57 297.45 145.48C297.1 145.45 297.08 145.11 297.43 145.14L297.43 145.14Z" />
						</g>
						<g id="Group 4345">
							<path id="Path 4819" class="shp47" d="M275.81 146.7C275.58 144.75 276.19 143.21 278.21 141.73C280 140.42 281.98 139.36 284.56 138.38C285.76 137.92 287.1 137.61 288.5 137.42C289.75 137.26 291.34 137.46 291.63 138.61C291.74 139.07 291.09 139.53 290.77 139.89C289.93 140.86 289.3 141.62 289.34 142.78C289.35 143 289.89 143.01 289.89 142.79C289.84 141.4 290.98 140.66 291.77 139.48C292.11 138.98 292.45 138.3 292 137.74C290.93 136.42 287.99 137.1 286.54 137.42C283.12 138.16 279.75 139.51 277.4 141.21C275.27 142.75 275.03 144.62 275.27 146.68C275.3 146.9 275.84 146.92 275.81 146.7L275.81 146.7Z" />
						</g>
						<g id="Group 4346">
							<path id="Path 4820" class="shp47" d="M281.16 147.4C279.85 145.99 278.21 145.36 275.83 144.83C275.5 144.76 275.14 145.4 275.49 145.44C277.61 145.73 279.45 146.21 280.7 147.55C280.88 147.74 281.34 147.59 281.16 147.4L281.16 147.4Z" />
						</g>
						<g id="Group 4347">
							<path id="Path 4821" class="shp47" d="M283 146.27C281.49 144.68 279.27 143.51 276.54 142.87C276.2 142.79 275.77 143.53 276.11 143.57C278.15 143.79 281.11 144.91 282.54 146.42C282.73 146.61 283.19 146.46 283 146.27L283 146.27Z" />
						</g>
						<g id="Group 4348">
							<path id="Path 4822" class="shp47" d="M284.42 145.18C283.19 143.45 281.1 141.9 278.4 141.01C278.08 140.91 277.47 141.35 277.79 141.46C280.42 142.32 282.76 143.65 283.96 145.33C284.1 145.53 284.56 145.38 284.42 145.18L284.42 145.18Z" />
						</g>
						<g id="Group 4349">
							<path id="Path 4823" class="shp47" d="M286.63 144.49C285.34 142.64 283.22 140.62 280.02 139.96C279.69 139.89 278.97 140.42 279.31 140.49C282.36 141.12 284.94 142.88 286.17 144.64C286.32 144.85 286.78 144.69 286.63 144.49L286.63 144.49Z" />
						</g>
						<g id="Group 4350">
							<path id="Path 4824" class="shp47" d="M288.42 143.64C287.63 141.72 285.6 139.83 283.04 138.6C282.75 138.46 281.88 139.01 282.16 139.15C284.61 140.32 287.15 141.88 287.9 143.71C287.99 143.93 288.51 143.86 288.42 143.64L288.42 143.64Z" />
						</g>
						<g id="Group 4351">
							<path id="Path 4825" class="shp47" d="M289.87 142.75C289.16 140.93 287.86 139.15 285.42 137.97C285.13 137.83 284.2 138.2 284.48 138.34C286.81 139.46 288.68 141.1 289.36 142.82C289.44 143.04 289.96 142.97 289.87 142.75L289.87 142.75Z" />
						</g>
						<g id="Group 4352">
							<path id="Path 4826" class="shp47" d="M290.59 140.75C290.47 140.12 290.36 139.46 289.92 138.85C289.46 138.22 288.64 137.73 287.82 137.27C287.55 137.12 286.71 137.39 286.98 137.54C287.71 137.95 288.72 138.34 289.16 138.89C289.63 139.46 289.93 140.12 290.05 140.73C290.1 140.95 290.64 140.97 290.59 140.75L290.59 140.75Z" />
						</g>
						<path id="Path 4827" class="shp47" d="M292.7 156.2C292.75 156.3 292.78 156.42 292.65 156.59C292.53 156.77 292.2 157.02 291.81 157.2C291.15 157.51 290.76 157.45 290.53 157.35L290.53 157.35C289.97 157.11 289.4 156.86 288.83 156.61C288.64 156.53 287.64 156.2 289.17 155.54C289.97 155.2 291.08 155.5 291.41 155.55C292.04 155.66 292.5 155.86 292.7 156.2Z" />
						<path id="Path 4828" class="shp47" d="M272.55 143.27C272.39 143.23 272.21 143.21 271.93 143.29C271.65 143.37 271.24 143.56 270.94 143.8C270.44 144.21 270.52 144.46 270.67 144.6L270.67 144.6C271.05 144.96 271.43 145.33 271.81 145.69C271.94 145.81 272.44 146.44 273.52 145.5C274.09 145 273.64 144.3 273.55 144.09C273.4 143.7 273.09 143.4 272.55 143.27Z" />
						<path id="Path 4829" class="shp47" d="M284.69 150.41L281.8 148.56C281.72 148.51 281.59 148.51 281.51 148.56L281.51 148.56C281.42 148.62 281.42 148.7 281.49 148.75L284.38 150.6C284.46 150.65 284.59 150.65 284.67 150.6L284.67 150.6C284.76 150.55 284.76 150.46 284.69 150.41Z" />
						<path id="Path 4830" class="shp47" d="M279.01 152.6L278.34 152.17C277.84 151.85 277 151.86 276.46 152.19L276.34 152.27L278.66 153.76L278.94 153.59C279.4 153.31 279.43 152.87 279.01 152.6Z" />
						<path id="Path 4831" class="shp47" d="M279.25 153.75L276.36 151.89C276.29 151.85 276.15 151.85 276.07 151.9L276.07 151.9C275.98 151.95 275.98 152.03 276.06 152.08L278.94 153.94C279.02 153.99 279.15 153.98 279.24 153.93L279.24 153.93C279.32 153.88 279.33 153.8 279.25 153.75Z" />
						<path id="Path 4832" class="shp47" d="M286.78 149.13L283.89 147.28C283.81 147.23 283.68 147.23 283.6 147.28L283.6 147.28C283.51 147.33 283.5 147.42 283.58 147.47L286.47 149.32C286.55 149.37 286.68 149.37 286.76 149.32L286.76 149.32C286.85 149.26 286.85 149.18 286.78 149.13Z" />
						<path id="Path 4833" class="shp47" d="M288.86 147.85L285.98 146C285.9 145.95 285.77 145.95 285.68 146L285.68 146C285.6 146.05 285.59 146.14 285.67 146.19L288.56 148.04C288.63 148.09 288.77 148.09 288.85 148.04L288.85 148.04C288.94 147.98 288.94 147.9 288.86 147.85Z" />
						<path id="Path 4834" class="shp47" d="M290.95 146.57L288.07 144.72C287.99 144.67 287.86 144.67 287.77 144.72L287.77 144.72C287.69 144.77 287.68 144.86 287.76 144.91L290.65 146.76C290.72 146.81 290.86 146.81 290.94 146.76L290.94 146.76C291.03 146.7 291.03 146.62 290.95 146.57Z" />
						<path id="Path 4835" class="shp47" d="M293.04 145.29L290.16 143.44C290.08 143.39 289.95 143.39 289.86 143.44L289.86 143.44C289.78 143.49 289.77 143.58 289.85 143.63L292.73 145.48C292.81 145.53 292.94 145.53 293.03 145.47L293.03 145.47C293.11 145.42 293.12 145.34 293.04 145.29Z" />
						<path id="Path 4836" class="shp47" d="M295.13 144.01L292.24 142.16C292.17 142.11 292.03 142.11 291.95 142.16L291.95 142.16C291.86 142.21 291.86 142.29 291.94 142.34L294.82 144.2C294.9 144.25 295.03 144.25 295.12 144.19L295.12 144.19C295.2 144.14 295.21 144.06 295.13 144.01Z" />
						<path id="Path 4837" class="shp47" d="M297.46 142.88L294.1 140.72C294.02 140.67 293.89 140.68 293.8 140.73L293.8 140.73C293.72 140.78 293.71 140.86 293.79 140.91L297.15 143.07C297.23 143.12 297.36 143.12 297.45 143.07L297.45 143.07C297.53 143.02 297.54 142.93 297.46 142.88Z" />
						<path id="Path 4838" class="shp47" d="M299.94 141.85L295.88 139.25C295.8 139.2 295.67 139.2 295.59 139.25L295.59 139.25C295.5 139.3 295.5 139.39 295.57 139.44L299.63 142.04C299.71 142.09 299.84 142.09 299.93 142.04L299.93 142.04C300.01 141.99 300.02 141.9 299.94 141.85Z" />
						<path id="Path 4839" class="shp47" d="M302.33 140.77L297.49 137.66C297.42 137.61 297.28 137.61 297.2 137.66L297.2 137.66C297.11 137.72 297.11 137.8 297.19 137.85L302.03 140.96C302.1 141.01 302.24 141 302.32 140.95L302.32 140.95C302.41 140.9 302.41 140.82 302.33 140.77Z" />
						<path id="Path 4840" class="shp47" d="M281.84 152.58C282.31 152.29 282.28 151.81 281.79 151.49C281.3 151.18 280.53 151.15 280.06 151.44C279.6 151.72 279.62 152.21 280.11 152.52C280.61 152.84 281.38 152.86 281.84 152.58Z" />
						<path id="Path 4841" class="shp47" d="M280.18 151.51C280.64 151.23 280.62 150.74 280.13 150.43C279.64 150.11 278.86 150.09 278.4 150.37C277.94 150.65 277.96 151.14 278.45 151.45C278.94 151.77 279.72 151.79 280.18 151.51Z" />
					</g>
				</g>
			</g>
		</g>
		<g id="Group 4359">
			<path id="Ellipse 6352" class="shp48" d="M175.42 74.04C175.41 76.37 172.14 78.23 168.1 78.21C164.07 78.19 160.82 76.29 160.83 73.96C160.84 71.63 164.11 69.77 168.15 69.79C172.18 69.81 175.43 71.71 175.42 74.04Z" />
			<path id="Path 4842" class="shp48" d="M174.2 74.14L160.83 74.09L160.83 62.18L174.2 62.29L174.2 74.14Z" />
			<path id="Path 4843" class="shp49" d="M171.45 62.23L171.45 73.11L171.43 73.53C171.44 75.37 170.5 75.69 169.07 76.51C168.22 77.01 167.16 77.55 166.08 77.75C168.59 78.2 171.4 77.55 173.38 76.41C174.8 75.59 175.5 74.95 175.49 73.11L175.48 73.11L175.44 62.32L171.45 62.23Z" />
			<path id="Path 4844" class="shp20" d="M173.3 65.28C170.46 66.92 165.84 66.91 162.98 65.26C160.12 63.61 160.11 60.94 162.95 59.3C165.79 57.67 170.41 57.67 173.27 59.32C176.12 60.97 176.14 63.64 173.3 65.28Z" />
			<path id="Path 4845" class="shp50" d="M172.44 64.69C170.09 66.05 166.27 66.04 163.91 64.68C161.55 63.31 161.54 61.11 163.88 59.76C166.23 58.4 170.05 58.41 172.41 59.77C174.77 61.13 174.78 63.34 172.44 64.69Z" />
			<path id="Path 4846" class="shp45" d="M172.41 61.89C170.05 60.53 166.23 60.52 163.88 61.88C163.19 62.28 162.7 62.76 162.42 63.27C162.71 63.78 163.2 64.27 163.91 64.68C166.27 66.04 170.09 66.05 172.44 64.69C173.13 64.29 173.62 63.81 173.9 63.3C173.61 62.79 173.12 62.3 172.41 61.89Z" />
			<path id="Path 4847" class="shp51" d="M163.88 64.69C163.19 64.29 162.7 63.81 162.42 63.3C162.58 63.01 162.82 62.72 163.12 62.46C165.16 62.12 167.44 62.41 169.05 63.33C169.74 63.73 170.23 64.21 170.51 64.72C170.64 64.94 170.73 65.16 170.76 65.37C170.41 65.46 170.09 65.53 169.81 65.57C167.77 65.91 165.48 65.62 163.88 64.69Z" />
			<g id="Group 4358">
				<g id="Group 4357">
					<path id="Path 4848" class="shp45" d="M173.6 66.06C174.81 66.69 176.49 67.3 176.84 68.79C177.21 70.38 176.98 72.34 176.94 73.96C176.91 75.03 176.74 76.35 175.42 76.5C174.49 76.61 173.37 75.81 172.59 75.41C171.53 74.85 172.47 73.24 173.54 73.79C173.94 74 174.44 74.39 174.89 74.47C175.45 74.57 175.13 74.4 175.08 73.72C175.05 73.28 175.09 72.83 175.09 72.4C175.09 71.55 175.2 70.57 175.04 69.74C174.81 68.52 173.64 68.19 172.66 67.67C171.59 67.11 172.54 65.5 173.6 66.06L173.6 66.06Z" />
				</g>
			</g>
		</g>
		<path id="Path 4849" class="shp52" d="M22.78 87.55C22.78 87.55 32.98 99.04 41.57 95.6C50.11 92.17 45.13 81.21 42.03 79.95" />
		<path id="Path 4850" class="shp37" d="M49.09 71.92C49.09 71.92 54.35 66.55 52.4 60.81C50.44 55.06 42.36 50.85 42.36 50.85L49.09 71.92Z" />
		<path id="Rectangle 332" class="shp18" d="M42.76 79.81L42.76 79.81C37.06 80.92 31.55 77.21 30.44 71.5L27.96 58.73C26.85 53.03 30.56 47.53 36.26 46.42L36.26 46.42C41.97 45.31 47.47 49.02 48.58 54.72L51.07 67.49C52.18 73.19 48.46 78.7 42.76 79.81Z" />
		<path id="Path 4851" class="shp42" d="M34.17 55.8C37.36 50.88 37.89 54.27 41.17 52.06C44.73 49.66 49.38 50.67 45.99 48.04C44.17 46.63 39.6 44.76 35.68 44.23C24.7 42.73 17.61 52.52 19.77 62.37C19.77 62.37 21.65 74.13 28.45 77.38C30.39 78.31 32.63 76.53 31.98 74.48C31.93 74.34 31.87 74.2 31.8 74.09C31.08 72.92 30.61 70.81 32.52 67.4C33.71 65.28 30.61 61.28 34.17 55.8Z" />
		<g id="Group 4360">
			<path id="Path 4852" class="shp20" d="M47.57 70L43.36 73.17C43.19 73.3 43.1 73.54 43.15 73.76C43.35 74.52 44.06 76.08 46.38 74.54C48.01 73.46 48.26 71.5 48.26 70.38C48.26 69.98 47.88 69.77 47.57 70Z" />
			<path id="Path 4853" class="shp53" d="M40.97 67.36C40.57 67.44 40.35 68.1 40.44 68.86C40.48 69.19 40.58 69.49 40.72 69.71C40.88 69.97 41.09 70.08 41.3 70.03C41.31 70.03 41.33 70.02 41.34 70.02C41.71 69.89 41.92 69.27 41.83 68.53C41.74 67.77 41.37 67.27 40.97 67.36Z" />
			<path id="Path 4854" class="shp53" d="M47.2 62.89C46.99 62.94 46.82 63.14 46.73 63.46C46.65 63.72 46.63 64.05 46.67 64.39C46.76 65.15 47.13 65.65 47.53 65.56C47.54 65.56 47.56 65.55 47.57 65.55C47.94 65.42 48.14 64.79 48.06 64.06C47.96 63.3 47.59 62.79 47.2 62.89Z" />
			<path id="Path 4855" class="shp42" d="M41.41 65.13C40.43 65.38 39.24 66.33 38.66 67.28C38.24 67.96 37.37 67.28 37.78 66.6C38.54 65.38 40 64.24 41.27 63.92C41.96 63.74 42.11 64.95 41.41 65.13L41.41 65.13Z" />
			<path id="Path 4856" class="shp42" d="M48.34 60.34C47.35 60.51 46.09 61.33 45.45 62.23C44.99 62.87 44.11 62.2 44.57 61.56C45.4 60.4 46.91 59.35 48.19 59.13C48.89 59.02 49.04 60.22 48.34 60.34L48.34 60.34Z" />
		</g>
		<path id="Path 4857" class="shp54" d="M42.77 56.21C48.11 56.89 53.02 59.76 51.26 68.51C51.26 68.51 57 61.79 50.8 53.08C49.05 50.61 47.46 49 46.14 47.95C44.27 46.46 41.56 46.67 39.91 48.4L39.91 48.4C37.26 51.19 38.96 55.73 42.77 56.21Z" />
		<path id="Path 4858" class="shp54" d="M29.67 65.1C29.5 64.3 28.42 62.71 27.99 60.63C26.68 54.44 37.69 49 41.49 47.19L40.12 48.88L40.62 53.82C43.07 54.1 45.94 55.32 48.84 58.53C48.84 58.53 39.3 64.59 33.44 57.1C33.44 57.1 32.29 61.34 32.77 65.36C33.24 69.38 30.52 71 30.52 71L29.1 68.69C29.1 68.69 30.01 66.68 29.67 65.1Z" />
		<path id="Ellipse 6353" class="shp18" d="M31.41 73.87C30.16 74.63 28.25 73.77 27.15 71.95C26.05 70.14 26.18 68.05 27.43 67.29C28.69 66.53 30.59 67.39 31.7 69.2C32.8 71.02 32.67 73.11 31.41 73.87Z" />
	</g>
</svg>